<svg xmlns="http://www.w3.org/2000/svg" version="1.0" viewBox="137.52 491.33 535.26 448.84"><defs><clipPath id="a"><path d="M 294 491.328125 L 296 491.328125 L 296 492 L 294 492 Z M 294 491.328125"/></clipPath><clipPath id="b"><path d="M 326 491.328125 L 327 491.328125 L 327 492 L 326 492 Z M 326 491.328125"/></clipPath><clipPath id="c"><path d="M 357 491.328125 L 359 491.328125 L 359 492 L 357 492 Z M 357 491.328125"/></clipPath><clipPath id="d"><path d="M 389 491.328125 L 390 491.328125 L 390 492 L 389 492 Z M 389 491.328125"/></clipPath><clipPath id="e"><path d="M 420 491.328125 L 422 491.328125 L 422 492 L 420 492 Z M 420 491.328125"/></clipPath><clipPath id="f"><path d="M 452 491.328125 L 453 491.328125 L 453 492 L 452 492 Z M 452 491.328125"/></clipPath><clipPath id="g"><path d="M 483 491.328125 L 484 491.328125 L 484 492 L 483 492 Z M 483 491.328125"/></clipPath><clipPath id="h"><path d="M 515 491.328125 L 516 491.328125 L 516 492 L 515 492 Z M 515 491.328125"/></clipPath><clipPath id="i"><path d="M 137.519531 680 L 138 680 L 138 681 L 137.519531 681 Z M 137.519531 680"/></clipPath><clipPath id="j"><path d="M 672.523438 680 L 672.757812 680 L 672.757812 680.429688 L 672.523438 680.429688 Z M 672.523438 680"/></clipPath><clipPath id="k"><path d="M 137.519531 711 L 138 711 L 138 712 L 137.519531 712 Z M 137.519531 711"/></clipPath><clipPath id="l"><path d="M 672.523438 711 L 672.757812 711 L 672.757812 712 L 672.523438 712 Z M 672.523438 711"/></clipPath><clipPath id="m"><path d="M 137.519531 742 L 138 742 L 138 744 L 137.519531 744 Z M 137.519531 742"/></clipPath><clipPath id="n"><path d="M 672.523438 743.019531 L 672.757812 743.019531 L 672.757812 744 L 672.523438 744 Z M 672.523438 743.019531"/></clipPath><clipPath id="o"><path d="M 137.519531 774 L 138 774 L 138 775 L 137.519531 775 Z M 137.519531 774"/></clipPath><clipPath id="p"><path d="M 672.523438 774.316406 L 672.757812 774.316406 L 672.757812 775 L 672.523438 775 Z M 672.523438 774.316406"/></clipPath><clipPath id="q"><path d="M 137.519531 805 L 138 805 L 138 807 L 137.519531 807 Z M 137.519531 805"/></clipPath><clipPath id="r"><path d="M 672.523438 805.609375 L 672.757812 805.609375 L 672.757812 806.769531 L 672.523438 806.769531 Z M 672.523438 805.609375"/></clipPath><clipPath id="s"><path d="M 137.519531 837 L 138 837 L 138 838 L 137.519531 838 Z M 137.519531 837"/></clipPath><clipPath id="t"><path d="M 672.523438 837 L 672.757812 837 L 672.757812 838 L 672.523438 838 Z M 672.523438 837"/></clipPath><clipPath id="u"><path d="M 412 923 L 429.972656 923 L 429.972656 940.167969 L 412 940.167969 Z M 412 923"/></clipPath></defs><g clip-path="url(#a)"><path fill="#EB1F2A" d="M 295.050781 491.769531 C 295.09375 491.769531 295.140625 491.726562 295.140625 491.679688 C 295.140625 491.632812 295.09375 491.59375 295.050781 491.59375 C 295.003906 491.59375 294.960938 491.632812 294.960938 491.679688 C 294.960938 491.726562 295.003906 491.769531 295.050781 491.769531"/></g><g clip-path="url(#b)"><path fill="#EB1F2A" d="M 326.519531 491.769531 C 326.570312 491.769531 326.609375 491.726562 326.609375 491.679688 C 326.609375 491.632812 326.570312 491.59375 326.519531 491.59375 C 326.46875 491.59375 326.433594 491.632812 326.433594 491.679688 C 326.433594 491.726562 326.46875 491.769531 326.519531 491.769531"/></g><g clip-path="url(#c)"><path fill="#EB1F2A" d="M 357.992188 491.769531 C 358.039062 491.769531 358.074219 491.726562 358.074219 491.679688 C 358.074219 491.632812 358.039062 491.59375 357.992188 491.59375 C 357.945312 491.59375 357.902344 491.632812 357.902344 491.679688 C 357.902344 491.726562 357.945312 491.769531 357.992188 491.769531"/></g><g clip-path="url(#d)"><path fill="#EB1F2A" d="M 389.460938 491.859375 C 389.554688 491.859375 389.636719 491.777344 389.636719 491.679688 C 389.636719 491.582031 389.554688 491.507812 389.460938 491.507812 C 389.367188 491.507812 389.289062 491.582031 389.289062 491.679688 C 389.289062 491.777344 389.367188 491.859375 389.460938 491.859375"/></g><g clip-path="url(#e)"><path fill="#EB1F2A" d="M 420.929688 491.859375 C 421.03125 491.859375 421.101562 491.777344 421.101562 491.679688 C 421.101562 491.582031 421.03125 491.507812 420.929688 491.507812 C 420.835938 491.507812 420.757812 491.582031 420.757812 491.679688 C 420.757812 491.777344 420.835938 491.859375 420.929688 491.859375"/></g><g clip-path="url(#f)"><path fill="#EB1F2A" d="M 452.40625 491.769531 C 452.449219 491.769531 452.488281 491.726562 452.488281 491.679688 C 452.488281 491.632812 452.449219 491.59375 452.40625 491.59375 C 452.355469 491.59375 452.3125 491.632812 452.3125 491.679688 C 452.3125 491.726562 452.355469 491.769531 452.40625 491.769531"/></g><g clip-path="url(#g)"><path fill="#EB1F2A" d="M 483.871094 491.769531 C 483.921875 491.769531 483.957031 491.726562 483.957031 491.679688 C 483.957031 491.632812 483.921875 491.59375 483.871094 491.59375 C 483.824219 491.59375 483.789062 491.632812 483.789062 491.679688 C 483.789062 491.726562 483.824219 491.769531 483.871094 491.769531"/></g><g clip-path="url(#h)"><path fill="#EB1F2A" d="M 515.339844 491.769531 C 515.390625 491.769531 515.429688 491.726562 515.429688 491.679688 C 515.429688 491.632812 515.390625 491.59375 515.339844 491.59375 C 515.296875 491.59375 515.253906 491.632812 515.253906 491.679688 C 515.253906 491.726562 515.296875 491.769531 515.339844 491.769531"/></g><path fill="#EB1F2A" d="M 295.050781 523.199219 C 295.09375 523.199219 295.140625 523.160156 295.140625 523.113281 C 295.140625 523.070312 295.09375 523.023438 295.050781 523.023438 C 295.003906 523.023438 294.960938 523.070312 294.960938 523.113281 C 294.960938 523.160156 295.003906 523.199219 295.050781 523.199219"/><path fill="#EB1F2A" d="M 326.519531 523.199219 C 326.570312 523.199219 326.609375 523.160156 326.609375 523.113281 C 326.609375 523.070312 326.570312 523.023438 326.519531 523.023438 C 326.46875 523.023438 326.433594 523.070312 326.433594 523.113281 C 326.433594 523.160156 326.46875 523.199219 326.519531 523.199219"/><path fill="#EB1F2A" d="M 357.992188 523.199219 C 358.039062 523.199219 358.074219 523.160156 358.074219 523.113281 C 358.074219 523.070312 358.039062 523.023438 357.992188 523.023438 C 357.945312 523.023438 357.902344 523.070312 357.902344 523.113281 C 357.902344 523.160156 357.945312 523.199219 357.992188 523.199219"/><path fill="#EB1F2A" d="M 389.460938 523.289062 C 389.554688 523.289062 389.636719 523.207031 389.636719 523.113281 C 389.636719 523.015625 389.554688 522.9375 389.460938 522.9375 C 389.367188 522.9375 389.289062 523.015625 389.289062 523.113281 C 389.289062 523.207031 389.367188 523.289062 389.460938 523.289062"/><path fill="#EB1F2A" d="M 420.929688 523.289062 C 421.03125 523.289062 421.101562 523.207031 421.101562 523.113281 C 421.101562 523.015625 421.03125 522.9375 420.929688 522.9375 C 420.835938 522.9375 420.757812 523.015625 420.757812 523.113281 C 420.757812 523.207031 420.835938 523.289062 420.929688 523.289062"/><path fill="#EB1F2A" d="M 452.40625 523.199219 C 452.449219 523.199219 452.488281 523.160156 452.488281 523.113281 C 452.488281 523.070312 452.449219 523.023438 452.40625 523.023438 C 452.355469 523.023438 452.3125 523.070312 452.3125 523.113281 C 452.3125 523.160156 452.355469 523.199219 452.40625 523.199219"/><path fill="#EB1F2A" d="M 483.871094 523.199219 C 483.921875 523.199219 483.957031 523.160156 483.957031 523.113281 C 483.957031 523.070312 483.921875 523.023438 483.871094 523.023438 C 483.824219 523.023438 483.789062 523.070312 483.789062 523.113281 C 483.789062 523.160156 483.824219 523.199219 483.871094 523.199219"/><path fill="#EB1F2A" d="M 515.339844 523.199219 C 515.390625 523.199219 515.429688 523.160156 515.429688 523.113281 C 515.429688 523.070312 515.390625 523.023438 515.339844 523.023438 C 515.296875 523.023438 515.253906 523.070312 515.253906 523.113281 C 515.253906 523.160156 515.296875 523.199219 515.339844 523.199219"/><path fill="#EB1F2A" d="M 232.109375 554.628906 C 232.152344 554.628906 232.199219 554.589844 232.199219 554.542969 C 232.199219 554.496094 232.152344 554.457031 232.109375 554.457031 C 232.058594 554.457031 232.023438 554.496094 232.023438 554.542969 C 232.023438 554.589844 232.058594 554.628906 232.109375 554.628906"/><path fill="#EB1F2A" d="M 263.574219 554.714844 C 263.675781 554.714844 263.75 554.640625 263.75 554.542969 C 263.75 554.449219 263.675781 554.367188 263.574219 554.367188 C 263.480469 554.367188 263.402344 554.449219 263.402344 554.542969 C 263.402344 554.640625 263.480469 554.714844 263.574219 554.714844"/><path fill="#EB1F2A" d="M 295.050781 554.894531 C 295.242188 554.894531 295.398438 554.734375 295.398438 554.542969 C 295.398438 554.351562 295.242188 554.195312 295.050781 554.195312 C 294.855469 554.195312 294.699219 554.351562 294.699219 554.542969 C 294.699219 554.734375 294.855469 554.894531 295.050781 554.894531"/><path fill="#EB1F2A" d="M 326.519531 555.066406 C 326.808594 555.066406 327.046875 554.828125 327.046875 554.542969 C 327.046875 554.253906 326.808594 554.019531 326.519531 554.019531 C 326.230469 554.019531 325.996094 554.253906 325.996094 554.542969 C 325.996094 554.828125 326.230469 555.066406 326.519531 555.066406"/><path fill="#EB1F2A" d="M 357.992188 555.152344 C 358.328125 555.152344 358.601562 554.878906 358.601562 554.542969 C 358.601562 554.210938 358.328125 553.933594 357.992188 553.933594 C 357.652344 553.933594 357.378906 554.210938 357.378906 554.542969 C 357.378906 554.878906 357.652344 555.152344 357.992188 555.152344"/><path fill="#EB1F2A" d="M 389.460938 555.152344 C 389.796875 555.152344 390.070312 554.878906 390.070312 554.542969 C 390.070312 554.210938 389.796875 553.933594 389.460938 553.933594 C 389.125 553.933594 388.851562 554.210938 388.851562 554.542969 C 388.851562 554.878906 389.125 555.152344 389.460938 555.152344"/><path fill="#EB1F2A" d="M 420.929688 555.152344 C 421.269531 555.152344 421.539062 554.878906 421.539062 554.542969 C 421.539062 554.210938 421.269531 553.933594 420.929688 553.933594 C 420.59375 553.933594 420.324219 554.210938 420.324219 554.542969 C 420.324219 554.878906 420.59375 555.152344 420.929688 555.152344"/><path fill="#EB1F2A" d="M 452.40625 555.066406 C 452.691406 555.066406 452.921875 554.828125 452.921875 554.542969 C 452.921875 554.253906 452.691406 554.019531 452.40625 554.019531 C 452.109375 554.019531 451.878906 554.253906 451.878906 554.542969 C 451.878906 554.828125 452.109375 555.066406 452.40625 555.066406"/><path fill="#EB1F2A" d="M 483.871094 554.980469 C 484.109375 554.980469 484.304688 554.785156 484.304688 554.542969 C 484.304688 554.304688 484.109375 554.109375 483.871094 554.109375 C 483.628906 554.109375 483.433594 554.304688 483.433594 554.542969 C 483.433594 554.785156 483.628906 554.980469 483.871094 554.980469"/><path fill="#EB1F2A" d="M 515.339844 554.808594 C 515.492188 554.808594 515.605469 554.691406 515.605469 554.542969 C 515.605469 554.398438 515.492188 554.28125 515.339844 554.28125 C 515.199219 554.28125 515.082031 554.398438 515.082031 554.542969 C 515.082031 554.691406 515.199219 554.808594 515.339844 554.808594"/><path fill="#EB1F2A" d="M 546.8125 554.714844 C 546.910156 554.714844 546.988281 554.640625 546.988281 554.542969 C 546.988281 554.449219 546.910156 554.367188 546.8125 554.367188 C 546.714844 554.367188 546.640625 554.449219 546.640625 554.542969 C 546.640625 554.640625 546.714844 554.714844 546.8125 554.714844"/><path fill="#EB1F2A" d="M 578.285156 554.628906 C 578.332031 554.628906 578.367188 554.589844 578.367188 554.542969 C 578.367188 554.496094 578.332031 554.457031 578.285156 554.457031 C 578.234375 554.457031 578.195312 554.496094 578.195312 554.542969 C 578.195312 554.589844 578.234375 554.628906 578.285156 554.628906"/><path fill="#EB1F2A" d="M 200.636719 586.0625 C 200.683594 586.0625 200.722656 586.023438 200.722656 585.972656 C 200.722656 585.925781 200.683594 585.890625 200.636719 585.890625 C 200.589844 585.890625 200.546875 585.925781 200.546875 585.972656 C 200.546875 586.023438 200.589844 586.0625 200.636719 586.0625"/><path fill="#EB1F2A" d="M 232.109375 586.320312 C 232.296875 586.320312 232.457031 586.164062 232.457031 585.972656 C 232.457031 585.78125 232.296875 585.621094 232.109375 585.621094 C 231.914062 585.621094 231.757812 585.78125 231.757812 585.972656 C 231.757812 586.164062 231.914062 586.320312 232.109375 586.320312"/><path fill="#EB1F2A" d="M 263.574219 586.585938 C 263.914062 586.585938 264.191406 586.308594 264.191406 585.972656 C 264.191406 585.636719 263.914062 585.363281 263.574219 585.363281 C 263.238281 585.363281 262.964844 585.636719 262.964844 585.972656 C 262.964844 586.308594 263.238281 586.585938 263.574219 586.585938"/><path fill="#EB1F2A" d="M 295.050781 586.933594 C 295.578125 586.933594 296.011719 586.503906 296.011719 585.972656 C 296.011719 585.445312 295.578125 585.015625 295.050781 585.015625 C 294.519531 585.015625 294.085938 585.445312 294.085938 585.972656 C 294.085938 586.503906 294.519531 586.933594 295.050781 586.933594"/><path fill="#EB1F2A" d="M 326.519531 587.195312 C 327.195312 587.195312 327.742188 586.644531 327.742188 585.972656 C 327.742188 585.300781 327.195312 584.753906 326.519531 584.753906 C 325.847656 584.753906 325.300781 585.300781 325.300781 585.972656 C 325.300781 586.644531 325.847656 587.195312 326.519531 587.195312"/><path fill="#EB1F2A" d="M 357.992188 587.285156 C 358.714844 587.285156 359.300781 586.699219 359.300781 585.972656 C 359.300781 585.25 358.714844 584.667969 357.992188 584.667969 C 357.269531 584.667969 356.683594 585.25 356.683594 585.972656 C 356.683594 586.699219 357.269531 587.285156 357.992188 587.285156"/><path fill="#EB1F2A" d="M 389.460938 587.285156 C 390.183594 587.285156 390.769531 586.699219 390.769531 585.972656 C 390.769531 585.25 390.183594 584.667969 389.460938 584.667969 C 388.738281 584.667969 388.152344 585.25 388.152344 585.972656 C 388.152344 586.699219 388.738281 587.285156 389.460938 587.285156"/><path fill="#EB1F2A" d="M 420.929688 587.285156 C 421.652344 587.285156 422.238281 586.699219 422.238281 585.972656 C 422.238281 585.25 421.652344 584.667969 420.929688 584.667969 C 420.214844 584.667969 419.621094 585.25 419.621094 585.972656 C 419.621094 586.699219 420.214844 587.285156 420.929688 587.285156"/><path fill="#EB1F2A" d="M 452.40625 587.195312 C 453.074219 587.195312 453.625 586.644531 453.625 585.972656 C 453.625 585.300781 453.074219 584.753906 452.40625 584.753906 C 451.730469 584.753906 451.179688 585.300781 451.179688 585.972656 C 451.179688 586.644531 451.730469 587.195312 452.40625 587.195312"/><path fill="#EB1F2A" d="M 483.871094 586.933594 C 484.402344 586.933594 484.832031 586.503906 484.832031 585.972656 C 484.832031 585.445312 484.402344 585.015625 483.871094 585.015625 C 483.34375 585.015625 482.914062 585.445312 482.914062 585.972656 C 482.914062 586.503906 483.34375 586.933594 483.871094 586.933594"/><path fill="#EB1F2A" d="M 515.339844 586.671875 C 515.730469 586.671875 516.039062 586.359375 516.039062 585.972656 C 516.039062 585.589844 515.730469 585.277344 515.339844 585.277344 C 514.960938 585.277344 514.648438 585.589844 514.648438 585.972656 C 514.648438 586.359375 514.960938 586.671875 515.339844 586.671875"/><path fill="#EB1F2A" d="M 546.8125 586.410156 C 547.050781 586.410156 547.25 586.21875 547.25 585.972656 C 547.25 585.734375 547.050781 585.535156 546.8125 585.535156 C 546.574219 585.535156 546.375 585.734375 546.375 585.972656 C 546.375 586.21875 546.574219 586.410156 546.8125 586.410156"/><path fill="#EB1F2A" d="M 578.285156 586.148438 C 578.375 586.148438 578.457031 586.070312 578.457031 585.972656 C 578.457031 585.878906 578.375 585.800781 578.285156 585.800781 C 578.1875 585.800781 578.109375 585.878906 578.109375 585.972656 C 578.109375 586.070312 578.1875 586.148438 578.285156 586.148438"/><path fill="#EB1F2A" d="M 609.75 586.0625 C 609.800781 586.0625 609.84375 586.023438 609.84375 585.972656 C 609.84375 585.925781 609.800781 585.890625 609.75 585.890625 C 609.707031 585.890625 609.667969 585.925781 609.667969 585.972656 C 609.667969 586.023438 609.707031 586.0625 609.75 586.0625"/><path fill="#EB1F2A" d="M 169.164062 617.492188 C 169.21875 617.492188 169.253906 617.453125 169.253906 617.40625 C 169.253906 617.359375 169.21875 617.316406 169.164062 617.316406 C 169.117188 617.316406 169.082031 617.359375 169.082031 617.40625 C 169.082031 617.453125 169.117188 617.492188 169.164062 617.492188"/><path fill="#EB1F2A" d="M 200.636719 617.753906 C 200.832031 617.753906 200.988281 617.601562 200.988281 617.40625 C 200.988281 617.210938 200.832031 617.058594 200.636719 617.058594 C 200.441406 617.058594 200.289062 617.210938 200.289062 617.40625 C 200.289062 617.601562 200.441406 617.753906 200.636719 617.753906"/><path fill="#EB1F2A" d="M 232.109375 618.277344 C 232.589844 618.277344 232.984375 617.886719 232.984375 617.40625 C 232.984375 616.925781 232.589844 616.53125 232.109375 616.53125 C 231.628906 616.53125 231.238281 616.925781 231.238281 617.40625 C 231.238281 617.886719 231.628906 618.277344 232.109375 618.277344"/><path fill="#EB1F2A" d="M 263.574219 618.796875 C 264.347656 618.796875 264.976562 618.175781 264.976562 617.40625 C 264.976562 616.636719 264.347656 616.011719 263.574219 616.011719 C 262.804688 616.011719 262.183594 616.636719 262.183594 617.40625 C 262.183594 618.175781 262.804688 618.796875 263.574219 618.796875"/><path fill="#EB1F2A" d="M 295.050781 619.320312 C 296.113281 619.320312 296.972656 618.460938 296.972656 617.40625 C 296.972656 616.347656 296.113281 615.488281 295.050781 615.488281 C 293.992188 615.488281 293.132812 616.347656 293.132812 617.40625 C 293.132812 618.460938 293.992188 619.320312 295.050781 619.320312"/><path fill="#EB1F2A" d="M 326.519531 619.671875 C 327.773438 619.671875 328.789062 618.65625 328.789062 617.40625 C 328.789062 616.152344 327.773438 615.140625 326.519531 615.140625 C 325.261719 615.140625 324.246094 616.152344 324.246094 617.40625 C 324.246094 618.65625 325.261719 619.671875 326.519531 619.671875"/><path fill="#EB1F2A" d="M 357.992188 619.761719 C 359.289062 619.761719 360.347656 618.707031 360.347656 617.40625 C 360.347656 616.101562 359.289062 615.050781 357.992188 615.050781 C 356.6875 615.050781 355.632812 616.101562 355.632812 617.40625 C 355.632812 618.707031 356.6875 619.761719 357.992188 619.761719"/><path fill="#EB1F2A" d="M 389.460938 619.761719 C 390.761719 619.761719 391.816406 618.707031 391.816406 617.40625 C 391.816406 616.101562 390.761719 615.050781 389.460938 615.050781 C 388.164062 615.050781 387.101562 616.101562 387.101562 617.40625 C 387.101562 618.707031 388.164062 619.761719 389.460938 619.761719"/><path fill="#EB1F2A" d="M 420.929688 619.671875 C 422.1875 619.671875 423.195312 618.65625 423.195312 617.40625 C 423.195312 616.152344 422.1875 615.140625 420.929688 615.140625 C 419.679688 615.140625 418.664062 616.152344 418.664062 617.40625 C 418.664062 618.65625 419.679688 619.671875 420.929688 619.671875"/><path fill="#EB1F2A" d="M 452.40625 619.40625 C 453.511719 619.40625 454.414062 618.511719 454.414062 617.40625 C 454.414062 616.296875 453.511719 615.402344 452.40625 615.402344 C 451.292969 615.402344 450.394531 616.296875 450.394531 617.40625 C 450.394531 618.511719 451.292969 619.40625 452.40625 619.40625"/><path fill="#EB1F2A" d="M 483.871094 619.0625 C 484.789062 619.0625 485.53125 618.316406 485.53125 617.40625 C 485.53125 616.492188 484.789062 615.75 483.871094 615.75 C 482.953125 615.75 482.214844 616.492188 482.214844 617.40625 C 482.214844 618.316406 482.953125 619.0625 483.871094 619.0625"/><path fill="#EB1F2A" d="M 515.339844 618.628906 C 516.015625 618.628906 516.566406 618.082031 516.566406 617.40625 C 516.566406 616.730469 516.015625 616.183594 515.339844 616.183594 C 514.664062 616.183594 514.121094 616.730469 514.121094 617.40625 C 514.121094 618.082031 514.664062 618.628906 515.339844 618.628906"/><path fill="#EB1F2A" d="M 546.8125 618.277344 C 547.296875 618.277344 547.6875 617.886719 547.6875 617.40625 C 547.6875 616.925781 547.296875 616.53125 546.8125 616.53125 C 546.335938 616.53125 545.941406 616.925781 545.941406 617.40625 C 545.941406 617.886719 546.335938 618.277344 546.8125 618.277344"/><path fill="#EB1F2A" d="M 578.285156 617.925781 C 578.570312 617.925781 578.808594 617.691406 578.808594 617.40625 C 578.808594 617.117188 578.570312 616.882812 578.285156 616.882812 C 577.996094 616.882812 577.761719 617.117188 577.761719 617.40625 C 577.761719 617.691406 577.996094 617.925781 578.285156 617.925781"/><path fill="#EB1F2A" d="M 609.75 617.578125 C 609.851562 617.578125 609.929688 617.5 609.929688 617.40625 C 609.929688 617.304688 609.851562 617.234375 609.75 617.234375 C 609.65625 617.234375 609.578125 617.304688 609.578125 617.40625 C 609.578125 617.5 609.65625 617.578125 609.75 617.578125"/><path fill="#EB1F2A" d="M 641.222656 617.492188 C 641.265625 617.492188 641.3125 617.453125 641.3125 617.40625 C 641.3125 617.359375 641.265625 617.316406 641.222656 617.316406 C 641.175781 617.316406 641.136719 617.359375 641.136719 617.40625 C 641.136719 617.453125 641.175781 617.492188 641.222656 617.492188"/><path fill="#EB1F2A" d="M 169.164062 649.101562 C 169.3125 649.101562 169.429688 648.980469 169.429688 648.835938 C 169.429688 648.6875 169.3125 648.574219 169.164062 648.574219 C 169.023438 648.574219 168.90625 648.6875 168.90625 648.835938 C 168.90625 648.980469 169.023438 649.101562 169.164062 649.101562"/><path fill="#EB1F2A" d="M 200.636719 649.703125 C 201.117188 649.703125 201.511719 649.316406 201.511719 648.835938 C 201.511719 648.351562 201.117188 647.96875 200.636719 647.96875 C 200.15625 647.96875 199.761719 648.351562 199.761719 648.835938 C 199.761719 649.316406 200.15625 649.703125 200.636719 649.703125"/><path fill="#EB1F2A" d="M 232.109375 650.492188 C 233.023438 650.492188 233.765625 649.75 233.765625 648.835938 C 233.765625 647.917969 233.023438 647.179688 232.109375 647.179688 C 231.191406 647.179688 230.449219 647.917969 230.449219 648.835938 C 230.449219 649.75 231.191406 650.492188 232.109375 650.492188"/><path fill="#EB1F2A" d="M 263.574219 651.277344 C 264.925781 651.277344 266.015625 650.1875 266.015625 648.835938 C 266.015625 647.488281 264.925781 646.398438 263.574219 646.398438 C 262.226562 646.398438 261.136719 647.488281 261.136719 648.835938 C 261.136719 650.1875 262.226562 651.277344 263.574219 651.277344"/><path fill="#EB1F2A" d="M 295.050781 651.882812 C 296.734375 651.882812 298.101562 650.519531 298.101562 648.835938 C 298.101562 647.148438 296.734375 645.785156 295.050781 645.785156 C 293.363281 645.785156 291.996094 647.148438 291.996094 648.835938 C 291.996094 650.519531 293.363281 651.882812 295.050781 651.882812"/><path fill="#EB1F2A" d="M 326.519531 652.324219 C 328.445312 652.324219 330.011719 650.761719 330.011719 648.835938 C 330.011719 646.910156 328.445312 645.351562 326.519531 645.351562 C 324.59375 645.351562 323.03125 646.910156 323.03125 648.835938 C 323.03125 650.761719 324.59375 652.324219 326.519531 652.324219"/><path fill="#EB1F2A" d="M 357.992188 652.410156 C 359.964844 652.410156 361.570312 650.804688 361.570312 648.835938 C 361.570312 646.863281 359.964844 645.261719 357.992188 645.261719 C 356.015625 645.261719 354.417969 646.863281 354.417969 648.835938 C 354.417969 650.804688 356.015625 652.410156 357.992188 652.410156"/><path fill="#EB1F2A" d="M 389.460938 652.410156 C 391.4375 652.410156 393.039062 650.804688 393.039062 648.835938 C 393.039062 646.863281 391.4375 645.261719 389.460938 645.261719 C 387.488281 645.261719 385.882812 646.863281 385.882812 648.835938 C 385.882812 650.804688 387.488281 652.410156 389.460938 652.410156"/><path fill="#EB1F2A" d="M 420.929688 652.152344 C 422.761719 652.152344 424.25 650.667969 424.25 648.835938 C 424.25 647.007812 422.761719 645.523438 420.929688 645.523438 C 419.101562 645.523438 417.617188 647.007812 417.617188 648.835938 C 417.617188 650.667969 419.101562 652.152344 420.929688 652.152344"/><path fill="#EB1F2A" d="M 452.40625 651.796875 C 454.035156 651.796875 455.363281 650.472656 455.363281 648.835938 C 455.363281 647.199219 454.035156 645.871094 452.40625 645.871094 C 450.761719 645.871094 449.433594 647.199219 449.433594 648.835938 C 449.433594 650.472656 450.761719 651.796875 452.40625 651.796875"/><path fill="#EB1F2A" d="M 483.871094 651.277344 C 485.222656 651.277344 486.3125 650.1875 486.3125 648.835938 C 486.3125 647.488281 485.222656 646.398438 483.871094 646.398438 C 482.519531 646.398438 481.429688 647.488281 481.429688 648.835938 C 481.429688 650.1875 482.519531 651.277344 483.871094 651.277344"/><path fill="#EB1F2A" d="M 515.339844 650.667969 C 516.351562 650.667969 517.175781 649.847656 517.175781 648.835938 C 517.175781 647.824219 516.351562 647.003906 515.339844 647.003906 C 514.328125 647.003906 513.507812 647.824219 513.507812 648.835938 C 513.507812 649.847656 514.328125 650.667969 515.339844 650.667969"/><path fill="#EB1F2A" d="M 546.8125 650.140625 C 547.535156 650.140625 548.121094 649.558594 548.121094 648.835938 C 548.121094 648.113281 547.535156 647.527344 546.8125 647.527344 C 546.089844 647.527344 545.503906 648.113281 545.503906 648.835938 C 545.503906 649.558594 546.089844 650.140625 546.8125 650.140625"/><path fill="#EB1F2A" d="M 578.285156 649.621094 C 578.722656 649.621094 579.070312 649.265625 579.070312 648.835938 C 579.070312 648.402344 578.722656 648.054688 578.285156 648.054688 C 577.851562 648.054688 577.496094 648.402344 577.496094 648.835938 C 577.496094 649.265625 577.851562 649.621094 578.285156 649.621094"/><path fill="#EB1F2A" d="M 609.75 649.265625 C 609.992188 649.265625 610.191406 649.078125 610.191406 648.835938 C 610.191406 648.59375 609.992188 648.398438 609.75 648.398438 C 609.511719 648.398438 609.316406 648.59375 609.316406 648.835938 C 609.316406 649.078125 609.511719 649.265625 609.75 649.265625"/><path fill="#EB1F2A" d="M 641.222656 649.007812 C 641.320312 649.007812 641.402344 648.925781 641.402344 648.835938 C 641.402344 648.742188 641.320312 648.660156 641.222656 648.660156 C 641.125 648.660156 641.046875 648.742188 641.046875 648.835938 C 641.046875 648.925781 641.125 649.007812 641.222656 649.007812"/><g clip-path="url(#i)"><path fill="#EB1F2A" d="M 137.699219 680.355469 C 137.742188 680.355469 137.789062 680.316406 137.789062 680.261719 C 137.789062 680.21875 137.742188 680.175781 137.699219 680.175781 C 137.648438 680.175781 137.613281 680.21875 137.613281 680.261719 C 137.613281 680.316406 137.648438 680.355469 137.699219 680.355469"/></g><path fill="#EB1F2A" d="M 169.164062 680.789062 C 169.457031 680.789062 169.6875 680.558594 169.6875 680.261719 C 169.6875 679.976562 169.457031 679.746094 169.164062 679.746094 C 168.878906 679.746094 168.648438 679.976562 168.648438 680.261719 C 168.648438 680.558594 168.878906 680.789062 169.164062 680.789062"/><path fill="#EB1F2A" d="M 200.636719 681.664062 C 201.410156 681.664062 202.035156 681.039062 202.035156 680.261719 C 202.035156 679.492188 201.410156 678.875 200.636719 678.875 C 199.867188 678.875 199.238281 679.492188 199.238281 680.261719 C 199.238281 681.039062 199.867188 681.664062 200.636719 681.664062"/><path fill="#EB1F2A" d="M 232.109375 682.707031 C 233.460938 682.707031 234.550781 681.617188 234.550781 680.261719 C 234.550781 678.917969 233.460938 677.828125 232.109375 677.828125 C 230.761719 677.828125 229.664062 678.917969 229.664062 680.261719 C 229.664062 681.617188 230.761719 682.707031 232.109375 682.707031"/><path fill="#EB1F2A" d="M 263.574219 683.753906 C 265.503906 683.753906 267.070312 682.191406 267.070312 680.261719 C 267.070312 678.34375 265.503906 676.78125 263.574219 676.78125 C 261.648438 676.78125 260.089844 678.34375 260.089844 680.261719 C 260.089844 682.191406 261.648438 683.753906 263.574219 683.753906"/><path fill="#EB1F2A" d="M 295.050781 684.710938 C 297.507812 684.710938 299.5 682.726562 299.5 680.261719 C 299.5 677.808594 297.507812 675.820312 295.050781 675.820312 C 292.59375 675.820312 290.597656 677.808594 290.597656 680.261719 C 290.597656 682.726562 292.59375 684.710938 295.050781 684.710938"/><path fill="#EB1F2A" d="M 326.519531 685.144531 C 329.222656 685.144531 331.40625 682.964844 331.40625 680.261719 C 331.40625 677.570312 329.222656 675.386719 326.519531 675.386719 C 323.816406 675.386719 321.632812 677.570312 321.632812 680.261719 C 321.632812 682.964844 323.816406 685.144531 326.519531 685.144531"/><path fill="#EB1F2A" d="M 357.992188 685.234375 C 360.738281 685.234375 362.960938 683.007812 362.960938 680.261719 C 362.960938 677.523438 360.738281 675.300781 357.992188 675.300781 C 355.242188 675.300781 353.015625 677.523438 353.015625 680.261719 C 353.015625 683.007812 355.242188 685.234375 357.992188 685.234375"/><path fill="#EB1F2A" d="M 389.460938 685.144531 C 392.15625 685.144531 394.347656 682.964844 394.347656 680.261719 C 394.347656 677.570312 392.15625 675.386719 389.460938 675.386719 C 386.761719 675.386719 384.574219 677.570312 384.574219 680.261719 C 384.574219 682.964844 386.761719 685.144531 389.460938 685.144531"/><path fill="#EB1F2A" d="M 420.929688 684.800781 C 423.4375 684.800781 425.472656 682.765625 425.472656 680.261719 C 425.472656 677.765625 423.4375 675.730469 420.929688 675.730469 C 418.425781 675.730469 416.390625 677.765625 416.390625 680.261719 C 416.390625 682.765625 418.425781 684.800781 420.929688 684.800781"/><path fill="#EB1F2A" d="M 452.40625 684.101562 C 454.523438 684.101562 456.238281 682.386719 456.238281 680.261719 C 456.238281 678.148438 454.523438 676.433594 452.40625 676.433594 C 450.28125 676.433594 448.558594 678.148438 448.558594 680.261719 C 448.558594 682.386719 450.28125 684.101562 452.40625 684.101562"/><path fill="#EB1F2A" d="M 483.871094 683.320312 C 485.558594 683.320312 486.925781 681.953125 486.925781 680.261719 C 486.925781 678.578125 485.558594 677.214844 483.871094 677.214844 C 482.183594 677.214844 480.820312 678.578125 480.820312 680.261719 C 480.820312 681.953125 482.183594 683.320312 483.871094 683.320312"/><path fill="#EB1F2A" d="M 515.339844 682.621094 C 516.640625 682.621094 517.699219 681.566406 517.699219 680.261719 C 517.699219 678.96875 516.640625 677.914062 515.339844 677.914062 C 514.039062 677.914062 512.988281 678.96875 512.988281 680.261719 C 512.988281 681.566406 514.039062 682.621094 515.339844 682.621094"/><path fill="#EB1F2A" d="M 546.8125 681.921875 C 547.726562 681.921875 548.46875 681.183594 548.46875 680.261719 C 548.46875 679.351562 547.726562 678.609375 546.8125 678.609375 C 545.898438 678.609375 545.15625 679.351562 545.15625 680.261719 C 545.15625 681.183594 545.898438 681.921875 546.8125 681.921875"/><path fill="#EB1F2A" d="M 578.285156 681.3125 C 578.863281 681.3125 579.328125 680.84375 579.328125 680.261719 C 579.328125 679.6875 578.863281 679.222656 578.285156 679.222656 C 577.707031 679.222656 577.234375 679.6875 577.234375 680.261719 C 577.234375 680.84375 577.707031 681.3125 578.285156 681.3125"/><path fill="#EB1F2A" d="M 609.75 680.878906 C 610.089844 680.878906 610.363281 680.601562 610.363281 680.261719 C 610.363281 679.929688 610.089844 679.65625 609.75 679.65625 C 609.417969 679.65625 609.144531 679.929688 609.144531 680.261719 C 609.144531 680.601562 609.417969 680.878906 609.75 680.878906"/><path fill="#EB1F2A" d="M 641.222656 680.53125 C 641.367188 680.53125 641.484375 680.414062 641.484375 680.261719 C 641.484375 680.121094 641.367188 680.003906 641.222656 680.003906 C 641.070312 680.003906 640.964844 680.121094 640.964844 680.261719 C 640.964844 680.414062 641.070312 680.53125 641.222656 680.53125"/><g clip-path="url(#j)"><path fill="#EB1F2A" d="M 672.691406 680.355469 C 672.742188 680.355469 672.78125 680.316406 672.78125 680.261719 C 672.78125 680.21875 672.742188 680.175781 672.691406 680.175781 C 672.648438 680.175781 672.605469 680.21875 672.605469 680.261719 C 672.605469 680.316406 672.648438 680.355469 672.691406 680.355469"/></g><g clip-path="url(#k)"><path fill="#EB1F2A" d="M 137.699219 711.875 C 137.792969 711.875 137.871094 711.792969 137.871094 711.699219 C 137.871094 711.597656 137.792969 711.523438 137.699219 711.523438 C 137.601562 711.523438 137.519531 711.597656 137.519531 711.699219 C 137.519531 711.792969 137.601562 711.875 137.699219 711.875"/></g><path fill="#EB1F2A" d="M 169.164062 712.566406 C 169.652344 712.566406 170.039062 712.183594 170.039062 711.699219 C 170.039062 711.21875 169.652344 710.824219 169.164062 710.824219 C 168.6875 710.824219 168.296875 711.21875 168.296875 711.699219 C 168.296875 712.183594 168.6875 712.566406 169.164062 712.566406"/><path fill="#EB1F2A" d="M 200.636719 713.613281 C 201.695312 713.613281 202.554688 712.757812 202.554688 711.699219 C 202.554688 710.640625 201.695312 709.777344 200.636719 709.777344 C 199.578125 709.777344 198.71875 710.640625 198.71875 711.699219 C 198.71875 712.757812 199.578125 713.613281 200.636719 713.613281"/><path fill="#EB1F2A" d="M 232.109375 715.007812 C 233.941406 715.007812 235.421875 713.527344 235.421875 711.699219 C 235.421875 709.871094 233.941406 708.382812 232.109375 708.382812 C 230.277344 708.382812 228.789062 709.871094 228.789062 711.699219 C 228.789062 713.527344 230.277344 715.007812 232.109375 715.007812"/><path fill="#EB1F2A" d="M 263.574219 716.488281 C 266.226562 716.488281 268.378906 714.34375 268.378906 711.699219 C 268.378906 709.050781 266.226562 706.902344 263.574219 706.902344 C 260.925781 706.902344 258.777344 709.050781 258.777344 711.699219 C 258.777344 714.34375 260.925781 716.488281 263.574219 716.488281"/><path fill="#EB1F2A" d="M 295.050781 717.621094 C 298.328125 717.621094 300.988281 714.972656 300.988281 711.699219 C 300.988281 708.421875 298.328125 705.773438 295.050781 705.773438 C 291.777344 705.773438 289.113281 708.421875 289.113281 711.699219 C 289.113281 714.972656 291.777344 717.621094 295.050781 717.621094"/><path fill="#EB1F2A" d="M 326.519531 718.144531 C 330.085938 718.144531 332.980469 715.257812 332.980469 711.699219 C 332.980469 708.136719 330.085938 705.246094 326.519531 705.246094 C 322.957031 705.246094 320.0625 708.136719 320.0625 711.699219 C 320.0625 715.257812 322.957031 718.144531 326.519531 718.144531"/><path fill="#EB1F2A" d="M 357.992188 718.144531 C 361.558594 718.144531 364.445312 715.257812 364.445312 711.699219 C 364.445312 708.136719 361.558594 705.246094 357.992188 705.246094 C 354.421875 705.246094 351.53125 708.136719 351.53125 711.699219 C 351.53125 715.257812 354.421875 718.144531 357.992188 718.144531"/><path fill="#EB1F2A" d="M 389.460938 717.972656 C 392.925781 717.972656 395.746094 715.164062 395.746094 711.699219 C 395.746094 708.230469 392.925781 705.421875 389.460938 705.421875 C 385.992188 705.421875 383.179688 708.230469 383.179688 711.699219 C 383.179688 715.164062 385.992188 717.972656 389.460938 717.972656"/><path fill="#EB1F2A" d="M 420.929688 717.363281 C 424.0625 717.363281 426.605469 714.828125 426.605469 711.699219 C 426.605469 708.570312 424.0625 706.035156 420.929688 706.035156 C 417.796875 706.035156 415.257812 708.570312 415.257812 711.699219 C 415.257812 714.828125 417.796875 717.363281 420.929688 717.363281"/><path fill="#EB1F2A" d="M 452.40625 716.402344 C 455.003906 716.402344 457.113281 714.300781 457.113281 711.699219 C 457.113281 709.101562 455.003906 706.988281 452.40625 706.988281 C 449.796875 706.988281 447.6875 709.101562 447.6875 711.699219 C 447.6875 714.300781 449.796875 716.402344 452.40625 716.402344"/><path fill="#EB1F2A" d="M 483.871094 715.269531 C 485.847656 715.269531 487.445312 713.671875 487.445312 711.699219 C 487.445312 709.722656 485.847656 708.125 483.871094 708.125 C 481.898438 708.125 480.292969 709.722656 480.292969 711.699219 C 480.292969 713.671875 481.898438 715.269531 483.871094 715.269531"/><path fill="#EB1F2A" d="M 515.339844 714.398438 C 516.835938 714.398438 518.050781 713.191406 518.050781 711.699219 C 518.050781 710.207031 516.835938 708.996094 515.339844 708.996094 C 513.847656 708.996094 512.640625 710.207031 512.640625 711.699219 C 512.640625 713.191406 513.847656 714.398438 515.339844 714.398438"/><path fill="#EB1F2A" d="M 546.8125 713.613281 C 547.871094 713.613281 548.734375 712.757812 548.734375 711.699219 C 548.734375 710.640625 547.871094 709.777344 546.8125 709.777344 C 545.75 709.777344 544.890625 710.640625 544.890625 711.699219 C 544.890625 712.757812 545.75 713.613281 546.8125 713.613281"/><path fill="#EB1F2A" d="M 578.285156 712.917969 C 578.960938 712.917969 579.503906 712.367188 579.503906 711.699219 C 579.503906 711.023438 578.960938 710.476562 578.285156 710.476562 C 577.609375 710.476562 577.058594 711.023438 577.058594 711.699219 C 577.058594 712.367188 577.609375 712.917969 578.285156 712.917969"/><path fill="#EB1F2A" d="M 609.75 712.390625 C 610.140625 712.390625 610.453125 712.082031 610.453125 711.699219 C 610.453125 711.3125 610.140625 711 609.75 711 C 609.371094 711 609.054688 711.3125 609.054688 711.699219 C 609.054688 712.082031 609.371094 712.390625 609.75 712.390625"/><path fill="#EB1F2A" d="M 641.222656 712.046875 C 641.417969 712.046875 641.570312 711.890625 641.570312 711.699219 C 641.570312 711.503906 641.417969 711.351562 641.222656 711.351562 C 641.03125 711.351562 640.878906 711.503906 640.878906 711.699219 C 640.878906 711.890625 641.03125 712.046875 641.222656 712.046875"/><g clip-path="url(#l)"><path fill="#EB1F2A" d="M 672.691406 711.785156 C 672.742188 711.785156 672.78125 711.75 672.78125 711.699219 C 672.78125 711.652344 672.742188 711.609375 672.691406 711.609375 C 672.648438 711.609375 672.605469 711.652344 672.605469 711.699219 C 672.605469 711.75 672.648438 711.785156 672.691406 711.785156"/></g><g clip-path="url(#m)"><path fill="#EB1F2A" d="M 137.699219 743.300781 C 137.792969 743.300781 137.871094 743.230469 137.871094 743.128906 C 137.871094 743.035156 137.792969 742.953125 137.699219 742.953125 C 137.601562 742.953125 137.519531 743.035156 137.519531 743.128906 C 137.519531 743.230469 137.601562 743.300781 137.699219 743.300781"/></g><path fill="#EB1F2A" d="M 169.164062 744.175781 C 169.75 744.175781 170.214844 743.703125 170.214844 743.128906 C 170.214844 742.554688 169.75 742.078125 169.164062 742.078125 C 168.585938 742.078125 168.121094 742.554688 168.121094 743.128906 C 168.121094 743.703125 168.585938 744.175781 169.164062 744.175781"/><path fill="#EB1F2A" d="M 200.636719 745.394531 C 201.890625 745.394531 202.910156 744.378906 202.910156 743.128906 C 202.910156 741.878906 201.890625 740.859375 200.636719 740.859375 C 199.386719 740.859375 198.371094 741.878906 198.371094 743.128906 C 198.371094 744.378906 199.386719 745.394531 200.636719 745.394531"/><path fill="#EB1F2A" d="M 232.109375 747.226562 C 234.371094 747.226562 236.207031 745.386719 236.207031 743.128906 C 236.207031 740.859375 234.371094 739.03125 232.109375 739.03125 C 229.839844 739.03125 228.003906 740.859375 228.003906 743.128906 C 228.003906 745.386719 229.839844 747.226562 232.109375 747.226562"/><path fill="#EB1F2A" d="M 263.574219 749.054688 C 266.855469 749.054688 269.511719 746.402344 269.511719 743.128906 C 269.511719 739.851562 266.855469 737.203125 263.574219 737.203125 C 260.300781 737.203125 257.644531 739.851562 257.644531 743.128906 C 257.644531 746.402344 260.300781 749.054688 263.574219 749.054688"/><path fill="#EB1F2A" d="M 295.050781 750.535156 C 299.148438 750.535156 302.46875 747.21875 302.46875 743.128906 C 302.46875 739.035156 299.148438 735.722656 295.050781 735.722656 C 290.949219 735.722656 287.632812 739.035156 287.632812 743.128906 C 287.632812 747.21875 290.949219 750.535156 295.050781 750.535156"/><path fill="#EB1F2A" d="M 326.519531 751.148438 C 330.957031 751.148438 334.546875 747.554688 334.546875 743.128906 C 334.546875 738.703125 330.957031 735.109375 326.519531 735.109375 C 322.085938 735.109375 318.496094 738.703125 318.496094 743.128906 C 318.496094 747.554688 322.085938 751.148438 326.519531 751.148438"/><path fill="#EB1F2A" d="M 357.992188 751.148438 C 362.425781 751.148438 366.023438 747.554688 366.023438 743.128906 C 366.023438 738.703125 362.425781 735.109375 357.992188 735.109375 C 353.558594 735.109375 349.964844 738.703125 349.964844 743.128906 C 349.964844 747.554688 353.558594 751.148438 357.992188 751.148438"/><path fill="#EB1F2A" d="M 389.460938 750.714844 C 393.652344 750.714844 397.054688 747.3125 397.054688 743.128906 C 397.054688 738.941406 393.652344 735.546875 389.460938 735.546875 C 385.269531 735.546875 381.871094 738.941406 381.871094 743.128906 C 381.871094 747.3125 385.269531 750.714844 389.460938 750.714844"/><path fill="#EB1F2A" d="M 420.929688 749.75 C 424.59375 749.75 427.566406 746.789062 427.566406 743.128906 C 427.566406 739.472656 424.59375 736.503906 420.929688 736.503906 C 417.265625 736.503906 414.296875 739.472656 414.296875 743.128906 C 414.296875 746.789062 417.265625 749.75 420.929688 749.75"/><path fill="#EB1F2A" d="M 452.40625 748.359375 C 455.292969 748.359375 457.640625 746.019531 457.640625 743.128906 C 457.640625 740.242188 455.292969 737.898438 452.40625 737.898438 C 449.511719 737.898438 447.164062 740.242188 447.164062 743.128906 C 447.164062 746.019531 449.511719 748.359375 452.40625 748.359375"/><path fill="#EB1F2A" d="M 483.871094 747.050781 C 486.042969 747.050781 487.800781 745.292969 487.800781 743.128906 C 487.800781 740.960938 486.042969 739.207031 483.871094 739.207031 C 481.703125 739.207031 479.945312 740.960938 479.945312 743.128906 C 479.945312 745.292969 481.703125 747.050781 483.871094 747.050781"/><path fill="#EB1F2A" d="M 515.339844 745.917969 C 516.886719 745.917969 518.132812 744.667969 518.132812 743.128906 C 518.132812 741.589844 516.886719 740.339844 515.339844 740.339844 C 513.800781 740.339844 512.546875 741.589844 512.546875 743.128906 C 512.546875 744.667969 513.800781 745.917969 515.339844 745.917969"/><path fill="#EB1F2A" d="M 546.8125 745.042969 C 547.871094 745.042969 548.734375 744.1875 548.734375 743.128906 C 548.734375 742.070312 547.871094 741.214844 546.8125 741.214844 C 545.75 741.214844 544.890625 742.070312 544.890625 743.128906 C 544.890625 744.1875 545.75 745.042969 546.8125 745.042969"/><path fill="#EB1F2A" d="M 578.285156 744.347656 C 578.960938 744.347656 579.503906 743.804688 579.503906 743.128906 C 579.503906 742.453125 578.960938 741.90625 578.285156 741.90625 C 577.609375 741.90625 577.058594 742.453125 577.058594 743.128906 C 577.058594 743.804688 577.609375 744.347656 578.285156 744.347656"/><path fill="#EB1F2A" d="M 609.75 743.914062 C 610.1875 743.914062 610.539062 743.5625 610.539062 743.128906 C 610.539062 742.695312 610.1875 742.347656 609.75 742.347656 C 609.316406 742.347656 608.96875 742.695312 608.96875 743.128906 C 608.96875 743.5625 609.316406 743.914062 609.75 743.914062"/><path fill="#EB1F2A" d="M 641.222656 743.476562 C 641.417969 743.476562 641.570312 743.324219 641.570312 743.128906 C 641.570312 742.933594 641.417969 742.777344 641.222656 742.777344 C 641.03125 742.777344 640.878906 742.933594 640.878906 743.128906 C 640.878906 743.324219 641.03125 743.476562 641.222656 743.476562"/><g clip-path="url(#n)"><path fill="#EB1F2A" d="M 672.691406 743.210938 C 672.742188 743.210938 672.78125 743.175781 672.78125 743.128906 C 672.78125 743.078125 672.742188 743.042969 672.691406 743.042969 C 672.648438 743.042969 672.605469 743.078125 672.605469 743.128906 C 672.605469 743.175781 672.648438 743.210938 672.691406 743.210938"/></g><g clip-path="url(#o)"><path fill="#EB1F2A" d="M 137.699219 774.730469 C 137.792969 774.730469 137.871094 774.660156 137.871094 774.558594 C 137.871094 774.464844 137.792969 774.382812 137.699219 774.382812 C 137.601562 774.382812 137.519531 774.464844 137.519531 774.558594 C 137.519531 774.660156 137.601562 774.730469 137.699219 774.730469"/></g><path fill="#EB1F2A" d="M 169.164062 775.605469 C 169.75 775.605469 170.214844 775.140625 170.214844 774.558594 C 170.214844 773.980469 169.75 773.515625 169.164062 773.515625 C 168.585938 773.515625 168.121094 773.980469 168.121094 774.558594 C 168.121094 775.140625 168.585938 775.605469 169.164062 775.605469"/><path fill="#EB1F2A" d="M 200.636719 777 C 201.984375 777 203.082031 775.910156 203.082031 774.558594 C 203.082031 773.207031 201.984375 772.121094 200.636719 772.121094 C 199.289062 772.121094 198.195312 773.207031 198.195312 774.558594 C 198.195312 775.910156 199.289062 777 200.636719 777"/><path fill="#EB1F2A" d="M 232.109375 778.828125 C 234.46875 778.828125 236.382812 776.917969 236.382812 774.558594 C 236.382812 772.195312 234.46875 770.285156 232.109375 770.285156 C 229.746094 770.285156 227.828125 772.195312 227.828125 774.558594 C 227.828125 776.917969 229.746094 778.828125 232.109375 778.828125"/><path fill="#EB1F2A" d="M 263.574219 781.355469 C 267.335938 781.355469 270.382812 778.3125 270.382812 774.558594 C 270.382812 770.808594 267.335938 767.757812 263.574219 767.757812 C 259.820312 767.757812 256.769531 770.808594 256.769531 774.558594 C 256.769531 778.3125 259.820312 781.355469 263.574219 781.355469"/><path fill="#EB1F2A" d="M 295.050781 783.453125 C 299.964844 783.453125 303.953125 779.46875 303.953125 774.558594 C 303.953125 769.648438 299.964844 765.667969 295.050781 765.667969 C 290.136719 765.667969 286.144531 769.648438 286.144531 774.558594 C 286.144531 779.46875 290.136719 783.453125 295.050781 783.453125"/><path fill="#EB1F2A" d="M 326.519531 784.234375 C 331.867188 784.234375 336.207031 779.898438 336.207031 774.558594 C 336.207031 769.21875 331.867188 764.882812 326.519531 764.882812 C 321.167969 764.882812 316.832031 769.21875 316.832031 774.558594 C 316.832031 779.898438 321.167969 784.234375 326.519531 784.234375"/><path fill="#EB1F2A" d="M 357.992188 784.234375 C 363.34375 784.234375 367.675781 779.898438 367.675781 774.558594 C 367.675781 769.21875 363.34375 764.882812 357.992188 764.882812 C 352.640625 764.882812 348.304688 769.21875 348.304688 774.558594 C 348.304688 779.898438 352.640625 784.234375 357.992188 784.234375"/><path fill="#EB1F2A" d="M 389.460938 783.453125 C 394.375 783.453125 398.359375 779.46875 398.359375 774.558594 C 398.359375 769.648438 394.375 765.667969 389.460938 765.667969 C 384.546875 765.667969 380.554688 769.648438 380.554688 774.558594 C 380.554688 779.46875 384.546875 783.453125 389.460938 783.453125"/><path fill="#EB1F2A" d="M 420.929688 781.882812 C 424.976562 781.882812 428.265625 778.601562 428.265625 774.558594 C 428.265625 770.515625 424.976562 767.238281 420.929688 767.238281 C 416.886719 767.238281 413.597656 770.515625 413.597656 774.558594 C 413.597656 778.601562 416.886719 781.882812 420.929688 781.882812"/><path fill="#EB1F2A" d="M 452.40625 779.964844 C 455.386719 779.964844 457.8125 777.542969 457.8125 774.558594 C 457.8125 771.578125 455.386719 769.152344 452.40625 769.152344 C 449.414062 769.152344 446.992188 771.578125 446.992188 774.558594 C 446.992188 777.542969 449.414062 779.964844 452.40625 779.964844"/><path fill="#EB1F2A" d="M 483.871094 778.570312 C 486.085938 778.570312 487.882812 776.773438 487.882812 774.558594 C 487.882812 772.347656 486.085938 770.554688 483.871094 770.554688 C 481.652344 770.554688 479.855469 772.347656 479.855469 774.558594 C 479.855469 776.773438 481.652344 778.570312 483.871094 778.570312"/><path fill="#EB1F2A" d="M 515.339844 777.34375 C 516.886719 777.34375 518.132812 776.097656 518.132812 774.558594 C 518.132812 773.019531 516.886719 771.769531 515.339844 771.769531 C 513.800781 771.769531 512.546875 773.019531 512.546875 774.558594 C 512.546875 776.097656 513.800781 777.34375 515.339844 777.34375"/><path fill="#EB1F2A" d="M 546.8125 776.480469 C 547.871094 776.480469 548.734375 775.621094 548.734375 774.558594 C 548.734375 773.5 547.871094 772.640625 546.8125 772.640625 C 545.75 772.640625 544.890625 773.5 544.890625 774.558594 C 544.890625 775.621094 545.75 776.480469 546.8125 776.480469"/><path fill="#EB1F2A" d="M 578.285156 775.78125 C 578.960938 775.78125 579.503906 775.230469 579.503906 774.558594 C 579.503906 773.886719 578.960938 773.335938 578.285156 773.335938 C 577.609375 773.335938 577.058594 773.886719 577.058594 774.558594 C 577.058594 775.230469 577.609375 775.78125 578.285156 775.78125"/><path fill="#EB1F2A" d="M 609.75 775.257812 C 610.140625 775.257812 610.453125 774.945312 610.453125 774.558594 C 610.453125 774.175781 610.140625 773.863281 609.75 773.863281 C 609.371094 773.863281 609.054688 774.175781 609.054688 774.558594 C 609.054688 774.945312 609.371094 775.257812 609.75 775.257812"/><path fill="#EB1F2A" d="M 641.222656 774.910156 C 641.417969 774.910156 641.570312 774.75 641.570312 774.558594 C 641.570312 774.367188 641.417969 774.210938 641.222656 774.210938 C 641.03125 774.210938 640.878906 774.367188 640.878906 774.558594 C 640.878906 774.75 641.03125 774.910156 641.222656 774.910156"/><g clip-path="url(#p)"><path fill="#EB1F2A" d="M 672.691406 774.644531 C 672.742188 774.644531 672.78125 774.609375 672.78125 774.558594 C 672.78125 774.511719 672.742188 774.472656 672.691406 774.472656 C 672.648438 774.472656 672.605469 774.511719 672.605469 774.558594 C 672.605469 774.609375 672.648438 774.644531 672.691406 774.644531"/></g><g clip-path="url(#q)"><path fill="#EB1F2A" d="M 137.699219 806.167969 C 137.792969 806.167969 137.871094 806.085938 137.871094 805.988281 C 137.871094 805.890625 137.792969 805.820312 137.699219 805.820312 C 137.601562 805.820312 137.519531 805.890625 137.519531 805.988281 C 137.519531 806.085938 137.601562 806.167969 137.699219 806.167969"/></g><path fill="#EB1F2A" d="M 169.164062 806.949219 C 169.699219 806.949219 170.128906 806.515625 170.128906 805.988281 C 170.128906 805.457031 169.699219 805.035156 169.164062 805.035156 C 168.632812 805.035156 168.207031 805.457031 168.207031 805.988281 C 168.207031 806.515625 168.632812 806.949219 169.164062 806.949219"/><path fill="#EB1F2A" d="M 200.636719 808.339844 C 201.9375 808.339844 202.996094 807.289062 202.996094 805.988281 C 202.996094 804.6875 201.9375 803.636719 200.636719 803.636719 C 199.332031 803.636719 198.28125 804.6875 198.28125 805.988281 C 198.28125 807.289062 199.332031 808.339844 200.636719 808.339844"/><path fill="#EB1F2A" d="M 232.109375 810.261719 C 234.46875 810.261719 236.382812 808.34375 236.382812 805.988281 C 236.382812 803.632812 234.46875 801.722656 232.109375 801.722656 C 229.746094 801.722656 227.828125 803.632812 227.828125 805.988281 C 227.828125 808.34375 229.746094 810.261719 232.109375 810.261719"/><path fill="#EB1F2A" d="M 263.574219 812.785156 C 267.335938 812.785156 270.382812 809.746094 270.382812 805.988281 C 270.382812 802.238281 267.335938 799.191406 263.574219 799.191406 C 259.820312 799.191406 256.769531 802.238281 256.769531 805.988281 C 256.769531 809.746094 259.820312 812.785156 263.574219 812.785156"/><path fill="#EB1F2A" d="M 295.050781 815.667969 C 300.398438 815.667969 304.738281 811.332031 304.738281 805.988281 C 304.738281 800.644531 300.398438 796.316406 295.050781 796.316406 C 289.699219 796.316406 285.359375 800.644531 285.359375 805.988281 C 285.359375 811.332031 289.699219 815.667969 295.050781 815.667969"/><path fill="#EB1F2A" d="M 326.519531 817.410156 C 332.835938 817.410156 337.957031 812.292969 337.957031 805.988281 C 337.957031 799.6875 332.835938 794.578125 326.519531 794.578125 C 320.207031 794.578125 315.085938 799.6875 315.085938 805.988281 C 315.085938 812.292969 320.207031 817.410156 326.519531 817.410156"/><path fill="#EB1F2A" d="M 357.992188 817.410156 C 364.304688 817.410156 369.421875 812.292969 369.421875 805.988281 C 369.421875 799.6875 364.304688 794.578125 357.992188 794.578125 C 351.679688 794.578125 346.5625 799.6875 346.5625 805.988281 C 346.5625 812.292969 351.679688 817.410156 357.992188 817.410156"/><path fill="#EB1F2A" d="M 389.460938 815.925781 C 394.953125 815.925781 399.410156 811.476562 399.410156 805.988281 C 399.410156 800.503906 394.953125 796.058594 389.460938 796.058594 C 383.964844 796.058594 379.511719 800.503906 379.511719 805.988281 C 379.511719 811.476562 383.964844 815.925781 389.460938 815.925781"/><path fill="#EB1F2A" d="M 420.929688 813.65625 C 425.171875 813.65625 428.609375 810.222656 428.609375 805.988281 C 428.609375 801.753906 425.171875 798.320312 420.929688 798.320312 C 416.691406 798.320312 413.25 801.753906 413.25 805.988281 C 413.25 810.222656 416.691406 813.65625 420.929688 813.65625"/><path fill="#EB1F2A" d="M 452.40625 811.398438 C 455.386719 811.398438 457.8125 808.972656 457.8125 805.988281 C 457.8125 803.003906 455.386719 800.585938 452.40625 800.585938 C 449.414062 800.585938 446.992188 803.003906 446.992188 805.988281 C 446.992188 808.972656 449.414062 811.398438 452.40625 811.398438"/><path fill="#EB1F2A" d="M 483.871094 809.910156 C 486.042969 809.910156 487.800781 808.160156 487.800781 805.988281 C 487.800781 803.828125 486.042969 802.070312 483.871094 802.070312 C 481.703125 802.070312 479.945312 803.828125 479.945312 805.988281 C 479.945312 808.160156 481.703125 809.910156 483.871094 809.910156"/><path fill="#EB1F2A" d="M 515.339844 808.609375 C 516.785156 808.609375 517.957031 807.429688 517.957031 805.988281 C 517.957031 804.546875 516.785156 803.378906 515.339844 803.378906 C 513.894531 803.378906 512.726562 804.546875 512.726562 805.988281 C 512.726562 807.429688 513.894531 808.609375 515.339844 808.609375"/><path fill="#EB1F2A" d="M 546.8125 807.734375 C 547.777344 807.734375 548.5625 806.957031 548.5625 805.988281 C 548.5625 805.027344 547.777344 804.242188 546.8125 804.242188 C 545.851562 804.242188 545.066406 805.027344 545.066406 805.988281 C 545.066406 806.957031 545.851562 807.734375 546.8125 807.734375"/><path fill="#EB1F2A" d="M 578.285156 807.035156 C 578.863281 807.035156 579.328125 806.566406 579.328125 805.988281 C 579.328125 805.410156 578.863281 804.945312 578.285156 804.945312 C 577.707031 804.945312 577.234375 805.410156 577.234375 805.988281 C 577.234375 806.566406 577.707031 807.035156 578.285156 807.035156"/><path fill="#EB1F2A" d="M 609.75 806.601562 C 610.089844 806.601562 610.363281 806.324219 610.363281 805.988281 C 610.363281 805.652344 610.089844 805.378906 609.75 805.378906 C 609.417969 805.378906 609.144531 805.652344 609.144531 805.988281 C 609.144531 806.324219 609.417969 806.601562 609.75 806.601562"/><path fill="#EB1F2A" d="M 641.222656 806.253906 C 641.367188 806.253906 641.484375 806.132812 641.484375 805.988281 C 641.484375 805.847656 641.367188 805.726562 641.222656 805.726562 C 641.070312 805.726562 640.964844 805.847656 640.964844 805.988281 C 640.964844 806.132812 641.070312 806.253906 641.222656 806.253906"/><g clip-path="url(#r)"><path fill="#EB1F2A" d="M 672.691406 806.078125 C 672.742188 806.078125 672.78125 806.039062 672.78125 805.988281 C 672.78125 805.941406 672.742188 805.90625 672.691406 805.90625 C 672.648438 805.90625 672.605469 805.941406 672.605469 805.988281 C 672.605469 806.039062 672.648438 806.078125 672.691406 806.078125"/></g><g clip-path="url(#s)"><path fill="#EB1F2A" d="M 137.699219 837.507812 C 137.742188 837.507812 137.789062 837.46875 137.789062 837.421875 C 137.789062 837.371094 137.742188 837.332031 137.699219 837.332031 C 137.648438 837.332031 137.613281 837.371094 137.613281 837.421875 C 137.613281 837.46875 137.648438 837.507812 137.699219 837.507812"/></g><path fill="#EB1F2A" d="M 169.164062 838.03125 C 169.503906 838.03125 169.78125 837.757812 169.78125 837.421875 C 169.78125 837.085938 169.503906 836.816406 169.164062 836.816406 C 168.828125 836.816406 168.554688 837.085938 168.554688 837.421875 C 168.554688 837.757812 168.828125 838.03125 169.164062 838.03125"/><path fill="#EB1F2A" d="M 200.636719 839.335938 C 201.695312 839.335938 202.554688 838.476562 202.554688 837.421875 C 202.554688 836.363281 201.695312 835.507812 200.636719 835.507812 C 199.578125 835.507812 198.71875 836.363281 198.71875 837.421875 C 198.71875 838.476562 199.578125 839.335938 200.636719 839.335938"/><path fill="#EB1F2A" d="M 232.109375 841.171875 C 234.179688 841.171875 235.855469 839.492188 235.855469 837.421875 C 235.855469 835.351562 234.179688 833.671875 232.109375 833.671875 C 230.035156 833.671875 228.355469 835.351562 228.355469 837.421875 C 228.355469 839.492188 230.035156 841.171875 232.109375 841.171875"/><path fill="#EB1F2A" d="M 263.574219 843.867188 C 267.140625 843.867188 270.039062 840.980469 270.039062 837.421875 C 270.039062 833.859375 267.140625 830.972656 263.574219 830.972656 C 260.015625 830.972656 257.125 833.859375 257.125 837.421875 C 257.125 840.980469 260.015625 843.867188 263.574219 843.867188"/><path fill="#EB1F2A" d="M 295.050781 847.097656 C 300.398438 847.097656 304.738281 842.765625 304.738281 837.421875 C 304.738281 832.078125 300.398438 827.746094 295.050781 827.746094 C 289.699219 827.746094 285.359375 832.078125 285.359375 837.421875 C 285.359375 842.765625 289.699219 847.097656 295.050781 847.097656"/><path fill="#EB1F2A" d="M 326.519531 848.839844 C 332.835938 848.839844 337.957031 843.730469 337.957031 837.421875 C 337.957031 831.113281 332.835938 826.003906 326.519531 826.003906 C 320.207031 826.003906 315.085938 831.113281 315.085938 837.421875 C 315.085938 843.730469 320.207031 848.839844 326.519531 848.839844"/><path fill="#EB1F2A" d="M 357.992188 848.839844 C 364.304688 848.839844 369.421875 843.730469 369.421875 837.421875 C 369.421875 831.113281 364.304688 826.003906 357.992188 826.003906 C 351.679688 826.003906 346.5625 831.113281 346.5625 837.421875 C 346.5625 843.730469 351.679688 848.839844 357.992188 848.839844"/><path fill="#EB1F2A" d="M 389.460938 848.664062 C 395.675781 848.664062 400.714844 843.632812 400.714844 837.421875 C 400.714844 831.210938 395.675781 826.179688 389.460938 826.179688 C 383.238281 826.179688 378.203125 831.210938 378.203125 837.421875 C 378.203125 843.632812 383.238281 848.664062 389.460938 848.664062"/><path fill="#EB1F2A" d="M 420.929688 845.183594 C 425.21875 845.183594 428.699219 841.710938 428.699219 837.421875 C 428.699219 833.132812 425.21875 829.660156 420.929688 829.660156 C 416.644531 829.660156 413.164062 833.132812 413.164062 837.421875 C 413.164062 841.710938 416.644531 845.183594 420.929688 845.183594"/><path fill="#EB1F2A" d="M 452.40625 842.738281 C 455.34375 842.738281 457.722656 840.355469 457.722656 837.421875 C 457.722656 834.484375 455.34375 832.105469 452.40625 832.105469 C 449.457031 832.105469 447.078125 834.484375 447.078125 837.421875 C 447.078125 840.355469 449.457031 842.738281 452.40625 842.738281"/><path fill="#EB1F2A" d="M 483.871094 840.820312 C 485.75 840.820312 487.273438 839.300781 487.273438 837.421875 C 487.273438 835.542969 485.75 834.019531 483.871094 834.019531 C 481.988281 834.019531 480.46875 835.542969 480.46875 837.421875 C 480.46875 839.300781 481.988281 840.820312 483.871094 840.820312"/><path fill="#EB1F2A" d="M 515.339844 839.597656 C 516.546875 839.597656 517.527344 838.625 517.527344 837.421875 C 517.527344 836.21875 516.546875 835.238281 515.339844 835.238281 C 514.136719 835.238281 513.164062 836.21875 513.164062 837.421875 C 513.164062 838.625 514.136719 839.597656 515.339844 839.597656"/><path fill="#EB1F2A" d="M 546.8125 838.730469 C 547.535156 838.730469 548.121094 838.140625 548.121094 837.421875 C 548.121094 836.695312 547.535156 836.113281 546.8125 836.113281 C 546.089844 836.113281 545.503906 836.695312 545.503906 837.421875 C 545.503906 838.140625 546.089844 838.730469 546.8125 838.730469"/><path fill="#EB1F2A" d="M 578.285156 838.203125 C 578.722656 838.203125 579.070312 837.855469 579.070312 837.421875 C 579.070312 836.988281 578.722656 836.636719 578.285156 836.636719 C 577.851562 836.636719 577.496094 836.988281 577.496094 837.421875 C 577.496094 837.855469 577.851562 838.203125 578.285156 838.203125"/><path fill="#EB1F2A" d="M 609.75 837.855469 C 609.992188 837.855469 610.191406 837.660156 610.191406 837.421875 C 610.191406 837.183594 609.992188 836.988281 609.75 836.988281 C 609.511719 836.988281 609.316406 837.183594 609.316406 837.421875 C 609.316406 837.660156 609.511719 837.855469 609.75 837.855469"/><path fill="#EB1F2A" d="M 641.222656 837.597656 C 641.320312 837.597656 641.402344 837.519531 641.402344 837.421875 C 641.402344 837.320312 641.320312 837.246094 641.222656 837.246094 C 641.125 837.246094 641.046875 837.320312 641.046875 837.421875 C 641.046875 837.519531 641.125 837.597656 641.222656 837.597656"/><g clip-path="url(#t)"><path fill="#EB1F2A" d="M 672.691406 837.507812 C 672.742188 837.507812 672.78125 837.46875 672.78125 837.421875 C 672.78125 837.371094 672.742188 837.332031 672.691406 837.332031 C 672.648438 837.332031 672.605469 837.371094 672.605469 837.421875 C 672.605469 837.46875 672.648438 837.507812 672.691406 837.507812"/></g><path fill="#EB1F2A" d="M 169.164062 869.113281 C 169.3125 869.113281 169.429688 868.996094 169.429688 868.851562 C 169.429688 868.703125 169.3125 868.589844 169.164062 868.589844 C 169.023438 868.589844 168.90625 868.703125 168.90625 868.851562 C 168.90625 868.996094 169.023438 869.113281 169.164062 869.113281"/><path fill="#EB1F2A" d="M 200.636719 869.898438 C 201.214844 869.898438 201.683594 869.433594 201.683594 868.851562 C 201.683594 868.277344 201.214844 867.800781 200.636719 867.800781 C 200.058594 867.800781 199.585938 868.277344 199.585938 868.851562 C 199.585938 869.433594 200.058594 869.898438 200.636719 869.898438"/><path fill="#EB1F2A" d="M 232.109375 871.207031 C 233.40625 871.207031 234.464844 870.152344 234.464844 868.851562 C 234.464844 867.554688 233.40625 866.5 232.109375 866.5 C 230.808594 866.5 229.75 867.554688 229.75 868.851562 C 229.75 870.152344 230.808594 871.207031 232.109375 871.207031"/><path fill="#EB1F2A" d="M 263.574219 873.378906 C 266.085938 873.378906 268.117188 871.351562 268.117188 868.851562 C 268.117188 866.347656 266.085938 864.320312 263.574219 864.320312 C 261.070312 864.320312 259.039062 866.347656 259.039062 868.851562 C 259.039062 871.351562 261.070312 873.378906 263.574219 873.378906"/><path fill="#EB1F2A" d="M 295.050781 876.523438 C 299.292969 876.523438 302.726562 873.089844 302.726562 868.851562 C 302.726562 864.613281 299.292969 861.179688 295.050781 861.179688 C 290.808594 861.179688 287.371094 864.613281 287.371094 868.851562 C 287.371094 873.089844 290.808594 876.523438 295.050781 876.523438"/><path fill="#EB1F2A" d="M 326.519531 880.265625 C 332.835938 880.265625 337.957031 875.15625 337.957031 868.851562 C 337.957031 862.546875 332.835938 857.433594 326.519531 857.433594 C 320.207031 857.433594 315.085938 862.546875 315.085938 868.851562 C 315.085938 875.15625 320.207031 880.265625 326.519531 880.265625"/><path fill="#EB1F2A" d="M 357.992188 880.265625 C 364.304688 880.265625 369.421875 875.15625 369.421875 868.851562 C 369.421875 862.546875 364.304688 857.433594 357.992188 857.433594 C 351.679688 857.433594 346.5625 862.546875 346.5625 868.851562 C 346.5625 875.15625 351.679688 880.265625 357.992188 880.265625"/><path fill="#EB1F2A" d="M 389.460938 880.265625 C 395.773438 880.265625 400.894531 875.15625 400.894531 868.851562 C 400.894531 862.546875 395.773438 857.433594 389.460938 857.433594 C 383.144531 857.433594 378.027344 862.546875 378.027344 868.851562 C 378.027344 875.15625 383.144531 880.265625 389.460938 880.265625"/><path fill="#EB1F2A" d="M 420.929688 876.613281 C 425.21875 876.613281 428.699219 873.136719 428.699219 868.851562 C 428.699219 864.570312 425.21875 861.097656 420.929688 861.097656 C 416.644531 861.097656 413.164062 864.570312 413.164062 868.851562 C 413.164062 873.136719 416.644531 876.613281 420.929688 876.613281"/><path fill="#EB1F2A" d="M 452.40625 873.378906 C 454.90625 873.378906 456.9375 871.351562 456.9375 868.851562 C 456.9375 866.347656 454.90625 864.320312 452.40625 864.320312 C 449.894531 864.320312 447.863281 866.347656 447.863281 868.851562 C 447.863281 871.351562 449.894531 873.378906 452.40625 873.378906"/><path fill="#EB1F2A" d="M 483.871094 871.292969 C 485.222656 871.292969 486.3125 870.203125 486.3125 868.851562 C 486.3125 867.503906 485.222656 866.410156 483.871094 866.410156 C 482.519531 866.410156 481.429688 867.503906 481.429688 868.851562 C 481.429688 870.203125 482.519531 871.292969 483.871094 871.292969"/><path fill="#EB1F2A" d="M 515.339844 870.15625 C 516.066406 870.15625 516.652344 869.574219 516.652344 868.851562 C 516.652344 868.132812 516.066406 867.542969 515.339844 867.542969 C 514.621094 867.542969 514.03125 868.132812 514.03125 868.851562 C 514.03125 869.574219 514.621094 870.15625 515.339844 870.15625"/><path fill="#EB1F2A" d="M 546.8125 869.636719 C 547.246094 869.636719 547.601562 869.289062 547.601562 868.851562 C 547.601562 868.421875 547.246094 868.070312 546.8125 868.070312 C 546.378906 868.070312 546.027344 868.421875 546.027344 868.851562 C 546.027344 869.289062 546.378906 869.636719 546.8125 869.636719"/><path fill="#EB1F2A" d="M 578.285156 869.289062 C 578.527344 869.289062 578.722656 869.09375 578.722656 868.851562 C 578.722656 868.613281 578.527344 868.417969 578.285156 868.417969 C 578.039062 868.417969 577.851562 868.613281 577.851562 868.851562 C 577.851562 869.09375 578.039062 869.289062 578.285156 869.289062"/><path fill="#EB1F2A" d="M 609.75 869.023438 C 609.851562 869.023438 609.929688 868.953125 609.929688 868.851562 C 609.929688 868.757812 609.851562 868.675781 609.75 868.675781 C 609.65625 868.675781 609.578125 868.757812 609.578125 868.851562 C 609.578125 868.953125 609.65625 869.023438 609.75 869.023438"/><path fill="#EB1F2A" d="M 641.222656 868.933594 C 641.265625 868.933594 641.3125 868.902344 641.3125 868.851562 C 641.3125 868.800781 641.265625 868.765625 641.222656 868.765625 C 641.175781 868.765625 641.136719 868.800781 641.136719 868.851562 C 641.136719 868.902344 641.175781 868.933594 641.222656 868.933594"/><path fill="#EB1F2A" d="M 200.636719 900.457031 C 200.734375 900.457031 200.808594 900.378906 200.808594 900.277344 C 200.808594 900.1875 200.734375 900.105469 200.636719 900.105469 C 200.539062 900.105469 200.460938 900.1875 200.460938 900.277344 C 200.460938 900.378906 200.539062 900.457031 200.636719 900.457031"/><path fill="#EB1F2A" d="M 232.109375 901.066406 C 232.542969 901.066406 232.894531 900.714844 232.894531 900.277344 C 232.894531 899.851562 232.542969 899.5 232.109375 899.5 C 231.671875 899.5 231.324219 899.851562 231.324219 900.277344 C 231.324219 900.714844 231.671875 901.066406 232.109375 901.066406"/><path fill="#EB1F2A" d="M 263.574219 901.9375 C 264.496094 901.9375 265.234375 901.199219 265.234375 900.277344 C 265.234375 899.367188 264.496094 898.621094 263.574219 898.621094 C 262.664062 898.621094 261.917969 899.367188 261.917969 900.277344 C 261.917969 901.199219 262.664062 901.9375 263.574219 901.9375"/><path fill="#EB1F2A" d="M 295.050781 903.335938 C 296.734375 903.335938 298.101562 901.972656 298.101562 900.277344 C 298.101562 898.597656 296.734375 897.230469 295.050781 897.230469 C 293.363281 897.230469 291.996094 898.597656 291.996094 900.277344 C 291.996094 901.972656 293.363281 903.335938 295.050781 903.335938"/><path fill="#EB1F2A" d="M 326.519531 906.296875 C 329.847656 906.296875 332.542969 903.601562 332.542969 900.277344 C 332.542969 896.964844 329.847656 894.269531 326.519531 894.269531 C 323.195312 894.269531 320.5 896.964844 320.5 900.277344 C 320.5 903.601562 323.195312 906.296875 326.519531 906.296875"/><path fill="#EB1F2A" d="M 357.992188 910.914062 C 363.867188 910.914062 368.636719 906.15625 368.636719 900.277344 C 368.636719 894.40625 363.867188 889.652344 357.992188 889.652344 C 352.109375 889.652344 347.34375 894.40625 347.34375 900.277344 C 347.34375 906.15625 352.109375 910.914062 357.992188 910.914062"/><path fill="#EB1F2A" d="M 389.460938 911.089844 C 395.433594 911.089844 400.28125 906.25 400.28125 900.277344 C 400.28125 894.316406 395.433594 889.476562 389.460938 889.476562 C 383.480469 889.476562 378.636719 894.316406 378.636719 900.277344 C 378.636719 906.25 383.480469 911.089844 389.460938 911.089844"/><path fill="#EB1F2A" d="M 420.929688 908.824219 C 425.652344 908.824219 429.484375 905 429.484375 900.277344 C 429.484375 895.566406 425.652344 891.742188 420.929688 891.742188 C 416.210938 891.742188 412.378906 895.566406 412.378906 900.277344 C 412.378906 905 416.210938 908.824219 420.929688 908.824219"/><path fill="#EB1F2A" d="M 452.40625 903.066406 C 453.941406 903.066406 455.195312 901.824219 455.195312 900.277344 C 455.195312 898.742188 453.941406 897.488281 452.40625 897.488281 C 450.859375 897.488281 449.601562 898.742188 449.601562 900.277344 C 449.601562 901.824219 450.859375 903.066406 452.40625 903.066406"/><path fill="#EB1F2A" d="M 483.871094 901.328125 C 484.445312 901.328125 484.921875 900.863281 484.921875 900.277344 C 484.921875 899.703125 484.445312 899.238281 483.871094 899.238281 C 483.292969 899.238281 482.824219 899.703125 482.824219 900.277344 C 482.824219 900.863281 483.292969 901.328125 483.871094 901.328125"/><path fill="#EB1F2A" d="M 515.339844 900.804688 C 515.628906 900.804688 515.867188 900.574219 515.867188 900.277344 C 515.867188 899.992188 515.628906 899.761719 515.339844 899.761719 C 515.054688 899.761719 514.816406 899.992188 514.816406 900.277344 C 514.816406 900.574219 515.054688 900.804688 515.339844 900.804688"/><path fill="#EB1F2A" d="M 546.8125 900.546875 C 546.957031 900.546875 547.074219 900.429688 547.074219 900.277344 C 547.074219 900.136719 546.957031 900.019531 546.8125 900.019531 C 546.671875 900.019531 546.546875 900.136719 546.546875 900.277344 C 546.546875 900.429688 546.671875 900.546875 546.8125 900.546875"/><path fill="#EB1F2A" d="M 578.285156 900.371094 C 578.332031 900.371094 578.367188 900.332031 578.367188 900.277344 C 578.367188 900.234375 578.332031 900.195312 578.285156 900.195312 C 578.234375 900.195312 578.195312 900.234375 578.195312 900.277344 C 578.195312 900.332031 578.234375 900.371094 578.285156 900.371094"/><path fill="#EB1F2A" d="M 609.75 900.371094 C 609.800781 900.371094 609.84375 900.332031 609.84375 900.277344 C 609.84375 900.234375 609.800781 900.195312 609.75 900.195312 C 609.707031 900.195312 609.667969 900.234375 609.667969 900.277344 C 609.667969 900.332031 609.707031 900.371094 609.75 900.371094"/><path fill="#EB1F2A" d="M 389.460938 939.996094 C 394.039062 939.996094 397.75 936.285156 397.75 931.714844 C 397.75 927.140625 394.039062 923.429688 389.460938 923.429688 C 384.882812 923.429688 381.171875 927.140625 381.171875 931.714844 C 381.171875 936.285156 384.882812 939.996094 389.460938 939.996094"/><g clip-path="url(#u)"><path fill="#EB1F2A" d="M 420.929688 940.167969 C 425.609375 940.167969 429.398438 936.382812 429.398438 931.714844 C 429.398438 927.042969 425.609375 923.261719 420.929688 923.261719 C 416.257812 923.261719 412.464844 927.042969 412.464844 931.714844 C 412.464844 936.382812 416.257812 940.167969 420.929688 940.167969"/></g></svg>