<svg xmlns="http://www.w3.org/2000/svg" version="1.0" viewBox="192.48 81 425.04 425"><defs><clipPath id="a"><path d="M 192.480469 81 L 202 81 L 202 91 L 192.480469 91 Z M 192.480469 81"/></clipPath><clipPath id="b"><path d="M 608 81 L 617.519531 81 L 617.519531 91 L 608 91 Z M 608 81"/></clipPath><clipPath id="c"><path d="M 192.480469 150 L 202 150 L 202 160 L 192.480469 160 Z M 192.480469 150"/></clipPath><clipPath id="d"><path d="M 608 150 L 617.519531 150 L 617.519531 160 L 608 160 Z M 608 150"/></clipPath><clipPath id="e"><path d="M 192.480469 219 L 202 219 L 202 229 L 192.480469 229 Z M 192.480469 219"/></clipPath><clipPath id="f"><path d="M 608 219 L 617.519531 219 L 617.519531 229 L 608 229 Z M 608 219"/></clipPath><clipPath id="g"><path d="M 192.480469 288 L 202 288 L 202 298 L 192.480469 298 Z M 192.480469 288"/></clipPath><clipPath id="h"><path d="M 608 288 L 617.519531 288 L 617.519531 298 L 608 298 Z M 608 288"/></clipPath><clipPath id="i"><path d="M 192.480469 358 L 202 358 L 202 368 L 192.480469 368 Z M 192.480469 358"/></clipPath><clipPath id="j"><path d="M 608 358 L 617.519531 358 L 617.519531 368 L 608 368 Z M 608 358"/></clipPath><clipPath id="k"><path d="M 192.480469 427 L 202 427 L 202 437 L 192.480469 437 Z M 192.480469 427"/></clipPath><clipPath id="l"><path d="M 608 427 L 617.519531 427 L 617.519531 437 L 608 437 Z M 608 427"/></clipPath><clipPath id="m"><path d="M 192.480469 496 L 202 496 L 202 506 L 192.480469 506 Z M 192.480469 496"/></clipPath><clipPath id="n"><path d="M 608 496 L 617.519531 496 L 617.519531 506 L 608 506 Z M 608 496"/></clipPath></defs><g clip-path="url(#a)"><path fill="#FFF" d="M 197.082031 90.074219 C 199.59375 90.074219 201.59375 88.027344 201.59375 85.5625 C 201.59375 83.097656 199.546875 81.007812 197.082031 81.007812 C 194.617188 81.007812 192.527344 83.050781 192.527344 85.5625 C 192.527344 88.074219 194.574219 90.074219 197.082031 90.074219 Z M 197.082031 90.074219"/></g><path fill="#FFF" d="M 266.375 81.007812 C 263.863281 81.007812 261.863281 83.050781 261.863281 85.515625 C 261.863281 87.980469 263.910156 90.027344 266.375 90.027344 C 268.839844 90.027344 270.882812 87.980469 270.882812 85.515625 C 270.882812 83.050781 268.886719 81.007812 266.375 81.007812 Z M 266.375 81.007812"/><path fill="#FFF" d="M 335.710938 81.007812 C 333.199219 81.007812 331.199219 83.050781 331.199219 85.515625 C 331.199219 87.980469 333.246094 90.027344 335.710938 90.027344 C 338.175781 90.027344 340.222656 87.980469 340.222656 85.515625 C 340.222656 83.050781 338.175781 81.007812 335.710938 81.007812 Z M 335.710938 81.007812"/><path fill="#FFF" d="M 405 81.007812 C 402.488281 81.007812 400.488281 83.050781 400.488281 85.515625 C 400.488281 87.980469 402.488281 90.074219 405 90.074219 C 407.511719 90.074219 409.511719 88.027344 409.511719 85.5625 C 409.511719 83.097656 407.511719 81.007812 405 81.007812 Z M 405 81.007812"/><path fill="#FFF" d="M 474.289062 81.007812 C 471.777344 81.007812 469.777344 83.050781 469.777344 85.515625 C 469.777344 87.980469 471.824219 90.027344 474.289062 90.027344 C 476.753906 90.027344 478.800781 87.980469 478.800781 85.515625 C 478.800781 83.050781 476.800781 81.007812 474.289062 81.007812 Z M 474.289062 81.007812"/><path fill="#FFF" d="M 543.625 81.007812 C 541.113281 81.007812 539.117188 83.050781 539.117188 85.515625 C 539.117188 87.980469 541.160156 90.027344 543.625 90.027344 C 546.089844 90.027344 548.136719 87.980469 548.136719 85.515625 C 548.136719 83.050781 546.136719 81.007812 543.625 81.007812 Z M 543.625 81.007812"/><g clip-path="url(#b)"><path fill="#FFF" d="M 612.917969 81.007812 C 610.40625 81.007812 608.40625 83.050781 608.40625 85.515625 C 608.40625 87.980469 610.453125 90.027344 612.917969 90.027344 C 615.378906 90.027344 617.425781 87.980469 617.425781 85.515625 C 617.425781 83.050781 615.425781 81.007812 612.917969 81.007812 Z M 612.917969 81.007812"/></g><g clip-path="url(#c)"><path fill="#FFF" d="M 197.082031 159.410156 C 199.59375 159.410156 201.59375 157.363281 201.59375 154.898438 C 201.59375 152.390625 199.546875 150.390625 197.082031 150.390625 C 194.617188 150.390625 192.574219 152.4375 192.574219 154.898438 C 192.527344 157.363281 194.574219 159.410156 197.082031 159.410156 Z M 197.082031 159.410156"/></g><path fill="#FFF" d="M 266.375 150.34375 C 263.863281 150.34375 261.863281 152.390625 261.863281 154.855469 C 261.863281 157.363281 263.910156 159.363281 266.375 159.363281 C 268.839844 159.363281 270.882812 157.320312 270.882812 154.855469 C 270.929688 152.34375 268.886719 150.34375 266.375 150.34375 Z M 266.375 150.34375"/><path fill="#FFF" d="M 335.710938 150.34375 C 333.199219 150.34375 331.199219 152.390625 331.199219 154.855469 C 331.199219 157.363281 333.246094 159.363281 335.710938 159.363281 C 338.175781 159.363281 340.222656 157.320312 340.222656 154.855469 C 340.222656 152.34375 338.175781 150.34375 335.710938 150.34375 Z M 335.710938 150.34375"/><path fill="#FFF" d="M 405 150.34375 C 402.488281 150.34375 400.488281 152.390625 400.488281 154.855469 C 400.488281 157.363281 402.535156 159.363281 405 159.363281 C 407.464844 159.363281 409.511719 157.320312 409.511719 154.855469 C 409.511719 152.34375 407.511719 150.34375 405 150.34375 Z M 405 150.34375"/><path fill="#FFF" d="M 474.289062 150.34375 C 471.777344 150.34375 469.777344 152.390625 469.777344 154.855469 C 469.777344 157.363281 471.824219 159.363281 474.289062 159.363281 C 476.753906 159.363281 478.800781 157.320312 478.800781 154.855469 C 478.847656 152.34375 476.800781 150.34375 474.289062 150.34375 Z M 474.289062 150.34375"/><path fill="#FFF" d="M 543.625 150.34375 C 541.113281 150.34375 539.117188 152.390625 539.117188 154.855469 C 539.117188 157.363281 541.160156 159.363281 543.625 159.363281 C 546.089844 159.363281 548.136719 157.320312 548.136719 154.855469 C 548.136719 152.34375 546.136719 150.34375 543.625 150.34375 Z M 543.625 150.34375"/><g clip-path="url(#d)"><path fill="#FFF" d="M 612.917969 150.34375 C 610.40625 150.34375 608.40625 152.390625 608.40625 154.855469 C 608.40625 157.363281 610.453125 159.363281 612.917969 159.363281 C 615.378906 159.363281 617.425781 157.320312 617.425781 154.855469 C 617.472656 152.34375 615.425781 150.34375 612.917969 150.34375 Z M 612.917969 150.34375"/></g><g clip-path="url(#e)"><path fill="#FFF" d="M 197.082031 228.699219 C 199.59375 228.699219 201.59375 226.65625 201.59375 224.191406 C 201.59375 221.726562 199.546875 219.679688 197.082031 219.679688 C 194.617188 219.679688 192.574219 221.726562 192.574219 224.191406 C 192.574219 226.65625 194.574219 228.699219 197.082031 228.699219 Z M 197.082031 228.699219"/></g><path fill="#FFF" d="M 266.375 219.632812 C 263.863281 219.632812 261.863281 221.679688 261.863281 224.144531 C 261.863281 226.609375 263.910156 228.65625 266.375 228.65625 C 268.839844 228.65625 270.882812 226.609375 270.882812 224.144531 C 270.882812 221.679688 268.886719 219.632812 266.375 219.632812 Z M 266.375 219.632812"/><path fill="#FFF" d="M 335.710938 219.632812 C 333.199219 219.632812 331.199219 221.679688 331.199219 224.144531 C 331.199219 226.609375 333.246094 228.65625 335.710938 228.65625 C 338.175781 228.65625 340.222656 226.609375 340.222656 224.144531 C 340.222656 221.679688 338.175781 219.632812 335.710938 219.632812 Z M 335.710938 219.632812"/><path fill="#FFF" d="M 405 219.632812 C 402.488281 219.632812 400.488281 221.679688 400.488281 224.144531 C 400.488281 226.609375 402.535156 228.65625 405 228.65625 C 407.464844 228.65625 409.511719 226.609375 409.511719 224.144531 C 409.511719 221.679688 407.511719 219.632812 405 219.632812 Z M 405 219.632812"/><path fill="#FFF" d="M 474.289062 219.632812 C 471.777344 219.632812 469.777344 221.679688 469.777344 224.144531 C 469.777344 226.609375 471.824219 228.65625 474.289062 228.65625 C 476.753906 228.65625 478.800781 226.609375 478.800781 224.144531 C 478.800781 221.679688 476.800781 219.632812 474.289062 219.632812 Z M 474.289062 219.632812"/><path fill="#FFF" d="M 543.625 219.632812 C 541.113281 219.632812 539.117188 221.679688 539.117188 224.144531 C 539.117188 226.609375 541.160156 228.65625 543.625 228.65625 C 546.089844 228.65625 548.136719 226.609375 548.136719 224.144531 C 548.136719 221.679688 546.136719 219.632812 543.625 219.632812 Z M 543.625 219.632812"/><g clip-path="url(#f)"><path fill="#FFF" d="M 612.917969 219.632812 C 610.40625 219.632812 608.40625 221.679688 608.40625 224.144531 C 608.40625 226.609375 610.453125 228.65625 612.917969 228.65625 C 615.378906 228.65625 617.425781 226.609375 617.425781 224.144531 C 617.425781 221.679688 615.425781 219.632812 612.917969 219.632812 Z M 612.917969 219.632812"/></g><g clip-path="url(#g)"><path fill="#FFF" d="M 197.082031 297.992188 C 199.59375 297.992188 201.59375 295.945312 201.59375 293.480469 C 201.59375 291.015625 199.546875 288.96875 197.082031 288.96875 C 194.617188 288.96875 192.527344 290.96875 192.527344 293.480469 C 192.527344 295.992188 194.574219 297.992188 197.082031 297.992188 Z M 197.082031 297.992188"/></g><path fill="#FFF" d="M 266.375 288.96875 C 263.863281 288.96875 261.863281 291.015625 261.863281 293.480469 C 261.863281 295.945312 263.910156 297.992188 266.375 297.992188 C 268.839844 297.992188 270.882812 295.945312 270.882812 293.480469 C 270.882812 291.015625 268.886719 288.96875 266.375 288.96875 Z M 266.375 288.96875"/><path fill="#FFF" d="M 335.710938 288.96875 C 333.199219 288.96875 331.199219 291.015625 331.199219 293.480469 C 331.199219 295.945312 333.246094 297.992188 335.710938 297.992188 C 338.175781 297.992188 340.222656 295.945312 340.222656 293.480469 C 340.222656 291.015625 338.175781 288.96875 335.710938 288.96875 Z M 335.710938 288.96875"/><path fill="#FFF" d="M 405 288.96875 C 402.488281 288.96875 400.488281 291.015625 400.488281 293.480469 C 400.488281 295.945312 402.535156 297.992188 405 297.992188 C 407.464844 297.992188 409.511719 295.945312 409.511719 293.480469 C 409.511719 291.015625 407.511719 288.96875 405 288.96875 Z M 405 288.96875"/><path fill="#FFF" d="M 474.289062 288.96875 C 471.777344 288.96875 469.777344 291.015625 469.777344 293.480469 C 469.777344 295.945312 471.824219 297.992188 474.289062 297.992188 C 476.753906 297.992188 478.800781 295.945312 478.800781 293.480469 C 478.800781 291.015625 476.800781 288.96875 474.289062 288.96875 Z M 474.289062 288.96875"/><path fill="#FFF" d="M 543.625 288.96875 C 541.113281 288.96875 539.117188 291.015625 539.117188 293.480469 C 539.117188 295.945312 541.160156 297.992188 543.625 297.992188 C 546.089844 297.992188 548.136719 295.945312 548.136719 293.480469 C 548.136719 291.015625 546.136719 288.96875 543.625 288.96875 Z M 543.625 288.96875"/><g clip-path="url(#h)"><path fill="#FFF" d="M 612.917969 288.96875 C 610.40625 288.96875 608.40625 291.015625 608.40625 293.480469 C 608.40625 295.945312 610.453125 297.992188 612.917969 297.992188 C 615.378906 297.992188 617.425781 295.945312 617.425781 293.480469 C 617.425781 291.015625 615.425781 288.96875 612.917969 288.96875 Z M 612.917969 288.96875"/></g><g clip-path="url(#i)"><path fill="#FFF" d="M 197.082031 367.328125 C 199.59375 367.328125 201.59375 365.28125 201.59375 362.816406 C 201.59375 360.351562 199.546875 358.304688 197.082031 358.304688 C 194.617188 358.304688 192.574219 360.351562 192.574219 362.816406 C 192.574219 365.28125 194.574219 367.328125 197.082031 367.328125 Z M 197.082031 367.328125"/></g><path fill="#FFF" d="M 266.375 358.257812 C 263.863281 358.257812 261.863281 360.304688 261.863281 362.769531 C 261.863281 365.234375 263.910156 367.28125 266.375 367.28125 C 268.839844 367.28125 270.882812 365.234375 270.882812 362.769531 C 270.882812 360.304688 268.886719 358.257812 266.375 358.257812 Z M 266.375 358.257812"/><path fill="#FFF" d="M 335.710938 358.257812 C 333.199219 358.257812 331.199219 360.304688 331.199219 362.769531 C 331.199219 365.234375 333.246094 367.28125 335.710938 367.28125 C 338.175781 367.28125 340.222656 365.234375 340.222656 362.769531 C 340.222656 360.304688 338.175781 358.257812 335.710938 358.257812 Z M 335.710938 358.257812"/><path fill="#FFF" d="M 405 358.257812 C 402.488281 358.257812 400.488281 360.304688 400.488281 362.769531 C 400.488281 365.234375 402.535156 367.28125 405 367.28125 C 407.464844 367.28125 409.511719 365.234375 409.511719 362.769531 C 409.511719 360.304688 407.511719 358.257812 405 358.257812 Z M 405 358.257812"/><path fill="#FFF" d="M 474.289062 358.257812 C 471.777344 358.257812 469.777344 360.304688 469.777344 362.769531 C 469.777344 365.234375 471.824219 367.28125 474.289062 367.28125 C 476.753906 367.28125 478.800781 365.234375 478.800781 362.769531 C 478.800781 360.304688 476.800781 358.257812 474.289062 358.257812 Z M 474.289062 358.257812"/><path fill="#FFF" d="M 543.625 358.257812 C 541.113281 358.257812 539.117188 360.304688 539.117188 362.769531 C 539.117188 365.234375 541.160156 367.28125 543.625 367.28125 C 546.089844 367.28125 548.136719 365.234375 548.136719 362.769531 C 548.136719 360.304688 546.136719 358.257812 543.625 358.257812 Z M 543.625 358.257812"/><g clip-path="url(#j)"><path fill="#FFF" d="M 612.917969 358.257812 C 610.40625 358.257812 608.40625 360.304688 608.40625 362.769531 C 608.40625 365.234375 610.453125 367.28125 612.917969 367.28125 C 615.378906 367.28125 617.425781 365.234375 617.425781 362.769531 C 617.425781 360.304688 615.425781 358.257812 612.917969 358.257812 Z M 612.917969 358.257812"/></g><g clip-path="url(#k)"><path fill="#FFF" d="M 201.59375 432.105469 C 201.59375 432.402344 201.566406 432.695312 201.507812 432.988281 C 201.449219 433.277344 201.363281 433.558594 201.25 433.832031 C 201.136719 434.105469 201 434.367188 200.835938 434.613281 C 200.667969 434.859375 200.484375 435.085938 200.273438 435.296875 C 200.0625 435.503906 199.835938 435.691406 199.589844 435.855469 C 199.34375 436.019531 199.082031 436.160156 198.808594 436.273438 C 198.535156 436.386719 198.253906 436.472656 197.964844 436.53125 C 197.671875 436.589844 197.378906 436.617188 197.082031 436.617188 C 196.789062 436.617188 196.496094 436.589844 196.203125 436.53125 C 195.914062 436.472656 195.632812 436.386719 195.359375 436.273438 C 195.082031 436.160156 194.824219 436.019531 194.578125 435.855469 C 194.332031 435.691406 194.105469 435.503906 193.894531 435.296875 C 193.683594 435.085938 193.496094 434.859375 193.332031 434.613281 C 193.167969 434.367188 193.03125 434.105469 192.917969 433.832031 C 192.804688 433.558594 192.71875 433.277344 192.660156 432.988281 C 192.601562 432.695312 192.574219 432.402344 192.574219 432.105469 C 192.574219 431.808594 192.601562 431.515625 192.660156 431.226562 C 192.71875 430.9375 192.804688 430.652344 192.917969 430.378906 C 193.03125 430.105469 193.167969 429.847656 193.332031 429.601562 C 193.496094 429.355469 193.683594 429.125 193.894531 428.917969 C 194.105469 428.707031 194.332031 428.519531 194.578125 428.355469 C 194.824219 428.191406 195.082031 428.050781 195.359375 427.9375 C 195.632812 427.824219 195.914062 427.738281 196.203125 427.683594 C 196.496094 427.625 196.789062 427.59375 197.082031 427.59375 C 197.378906 427.59375 197.671875 427.625 197.964844 427.683594 C 198.253906 427.738281 198.535156 427.824219 198.808594 427.9375 C 199.082031 428.050781 199.34375 428.191406 199.589844 428.355469 C 199.835938 428.519531 200.0625 428.707031 200.273438 428.917969 C 200.484375 429.125 200.667969 429.355469 200.835938 429.601562 C 201 429.847656 201.136719 430.105469 201.25 430.378906 C 201.363281 430.652344 201.449219 430.9375 201.507812 431.226562 C 201.566406 431.515625 201.59375 431.808594 201.59375 432.105469 Z M 201.59375 432.105469"/></g><path fill="#FFF" d="M 266.375 427.550781 C 263.863281 427.550781 261.863281 429.59375 261.863281 432.058594 C 261.863281 434.523438 263.910156 436.570312 266.375 436.570312 C 268.839844 436.570312 270.882812 434.523438 270.882812 432.058594 C 270.882812 429.59375 268.886719 427.550781 266.375 427.550781 Z M 266.375 427.550781"/><path fill="#FFF" d="M 335.710938 427.550781 C 333.199219 427.550781 331.199219 429.59375 331.199219 432.058594 C 331.199219 434.523438 333.246094 436.570312 335.710938 436.570312 C 338.175781 436.570312 340.222656 434.523438 340.222656 432.058594 C 340.222656 429.59375 338.175781 427.550781 335.710938 427.550781 Z M 335.710938 427.550781"/><path fill="#FFF" d="M 409.511719 432.105469 C 409.511719 432.402344 409.480469 432.695312 409.425781 432.988281 C 409.367188 433.277344 409.28125 433.558594 409.167969 433.832031 C 409.054688 434.105469 408.914062 434.367188 408.75 434.613281 C 408.585938 434.859375 408.398438 435.085938 408.191406 435.296875 C 407.980469 435.503906 407.753906 435.691406 407.507812 435.855469 C 407.261719 436.019531 407 436.160156 406.726562 436.273438 C 406.453125 436.386719 406.171875 436.472656 405.878906 436.53125 C 405.589844 436.589844 405.296875 436.617188 405 436.617188 C 404.703125 436.617188 404.410156 436.589844 404.121094 436.53125 C 403.828125 436.472656 403.546875 436.386719 403.273438 436.273438 C 403 436.160156 402.738281 436.019531 402.492188 435.855469 C 402.246094 435.691406 402.019531 435.503906 401.808594 435.296875 C 401.601562 435.085938 401.414062 434.859375 401.25 434.613281 C 401.085938 434.367188 400.945312 434.105469 400.832031 433.832031 C 400.71875 433.558594 400.632812 433.277344 400.574219 432.988281 C 400.519531 432.695312 400.488281 432.402344 400.488281 432.105469 C 400.488281 431.808594 400.519531 431.515625 400.574219 431.226562 C 400.632812 430.9375 400.71875 430.652344 400.832031 430.378906 C 400.945312 430.105469 401.085938 429.847656 401.25 429.601562 C 401.414062 429.355469 401.601562 429.125 401.808594 428.917969 C 402.019531 428.707031 402.246094 428.519531 402.492188 428.355469 C 402.738281 428.191406 403 428.050781 403.273438 427.9375 C 403.546875 427.824219 403.828125 427.738281 404.121094 427.683594 C 404.410156 427.625 404.703125 427.59375 405 427.59375 C 405.296875 427.59375 405.589844 427.625 405.878906 427.683594 C 406.171875 427.738281 406.453125 427.824219 406.726562 427.9375 C 407 428.050781 407.257812 428.191406 407.507812 428.355469 C 407.753906 428.519531 407.980469 428.707031 408.191406 428.917969 C 408.398438 429.125 408.585938 429.355469 408.75 429.601562 C 408.914062 429.847656 409.054688 430.105469 409.167969 430.378906 C 409.28125 430.652344 409.367188 430.9375 409.425781 431.226562 C 409.480469 431.515625 409.511719 431.808594 409.511719 432.105469 Z M 409.511719 432.105469"/><path fill="#FFF" d="M 474.289062 427.550781 C 471.777344 427.550781 469.777344 429.59375 469.777344 432.058594 C 469.777344 434.523438 471.824219 436.570312 474.289062 436.570312 C 476.753906 436.570312 478.800781 434.523438 478.800781 432.058594 C 478.800781 429.59375 476.800781 427.550781 474.289062 427.550781 Z M 474.289062 427.550781"/><path fill="#FFF" d="M 543.625 427.550781 C 541.113281 427.550781 539.117188 429.59375 539.117188 432.058594 C 539.117188 434.523438 541.160156 436.570312 543.625 436.570312 C 546.089844 436.570312 548.136719 434.523438 548.136719 432.058594 C 548.136719 429.59375 546.136719 427.550781 543.625 427.550781 Z M 543.625 427.550781"/><g clip-path="url(#l)"><path fill="#FFF" d="M 617.425781 432.105469 C 617.425781 432.402344 617.398438 432.695312 617.339844 432.988281 C 617.28125 433.277344 617.195312 433.558594 617.082031 433.832031 C 616.96875 434.105469 616.832031 434.367188 616.667969 434.613281 C 616.503906 434.859375 616.316406 435.085938 616.105469 435.296875 C 615.894531 435.503906 615.667969 435.691406 615.421875 435.855469 C 615.175781 436.019531 614.914062 436.160156 614.640625 436.273438 C 614.367188 436.386719 614.085938 436.472656 613.796875 436.53125 C 613.503906 436.589844 613.210938 436.617188 612.917969 436.617188 C 612.621094 436.617188 612.328125 436.589844 612.035156 436.53125 C 611.746094 436.472656 611.464844 436.386719 611.191406 436.273438 C 610.917969 436.160156 610.65625 436.019531 610.410156 435.855469 C 610.164062 435.691406 609.9375 435.503906 609.726562 435.296875 C 609.515625 435.085938 609.332031 434.859375 609.164062 434.613281 C 609 434.367188 608.863281 434.105469 608.75 433.832031 C 608.636719 433.558594 608.550781 433.277344 608.492188 432.988281 C 608.433594 432.695312 608.40625 432.402344 608.40625 432.105469 C 608.40625 431.808594 608.433594 431.515625 608.492188 431.226562 C 608.550781 430.9375 608.636719 430.652344 608.75 430.378906 C 608.863281 430.105469 609 429.847656 609.164062 429.601562 C 609.332031 429.355469 609.515625 429.125 609.726562 428.917969 C 609.9375 428.707031 610.164062 428.519531 610.410156 428.355469 C 610.65625 428.191406 610.917969 428.050781 611.191406 427.9375 C 611.464844 427.824219 611.746094 427.738281 612.035156 427.683594 C 612.328125 427.625 612.621094 427.59375 612.917969 427.59375 C 613.210938 427.59375 613.503906 427.625 613.796875 427.683594 C 614.085938 427.738281 614.367188 427.824219 614.640625 427.9375 C 614.914062 428.050781 615.175781 428.191406 615.421875 428.355469 C 615.667969 428.519531 615.894531 428.707031 616.105469 428.917969 C 616.316406 429.125 616.503906 429.355469 616.667969 429.601562 C 616.832031 429.847656 616.96875 430.105469 617.082031 430.378906 C 617.195312 430.652344 617.28125 430.9375 617.339844 431.226562 C 617.398438 431.515625 617.425781 431.808594 617.425781 432.105469 Z M 617.425781 432.105469"/></g><g clip-path="url(#m)"><path fill="#FFF" d="M 197.082031 496.886719 C 194.574219 496.886719 192.574219 498.929688 192.574219 501.394531 C 192.574219 503.859375 194.617188 505.90625 197.082031 505.90625 C 199.546875 505.90625 201.59375 503.859375 201.59375 501.394531 C 201.59375 498.929688 199.546875 496.886719 197.082031 496.886719 Z M 197.082031 496.886719"/></g><path fill="#FFF" d="M 266.375 496.886719 C 263.863281 496.886719 261.863281 498.929688 261.863281 501.394531 C 261.863281 503.859375 263.910156 505.90625 266.375 505.90625 C 268.839844 505.90625 270.882812 503.859375 270.882812 501.394531 C 270.882812 498.929688 268.886719 496.886719 266.375 496.886719 Z M 266.375 496.886719"/><path fill="#FFF" d="M 335.710938 496.886719 C 333.199219 496.886719 331.199219 498.929688 331.199219 501.394531 C 331.199219 503.859375 333.246094 505.90625 335.710938 505.90625 C 338.175781 505.90625 340.222656 503.859375 340.222656 501.394531 C 340.222656 498.929688 338.175781 496.886719 335.710938 496.886719 Z M 335.710938 496.886719"/><path fill="#FFF" d="M 405 496.886719 C 402.488281 496.886719 400.488281 498.929688 400.488281 501.394531 C 400.488281 503.859375 402.535156 505.90625 405 505.90625 C 407.464844 505.90625 409.511719 503.859375 409.511719 501.394531 C 409.511719 498.929688 407.511719 496.886719 405 496.886719 Z M 405 496.886719"/><path fill="#FFF" d="M 474.289062 496.886719 C 471.777344 496.886719 469.777344 498.929688 469.777344 501.394531 C 469.777344 503.859375 471.824219 505.90625 474.289062 505.90625 C 476.753906 505.90625 478.800781 503.859375 478.800781 501.394531 C 478.800781 498.929688 476.800781 496.886719 474.289062 496.886719 Z M 474.289062 496.886719"/><path fill="#FFF" d="M 543.625 496.886719 C 541.113281 496.886719 539.117188 498.929688 539.117188 501.394531 C 539.117188 503.859375 541.160156 505.90625 543.625 505.90625 C 546.089844 505.90625 548.136719 503.859375 548.136719 501.394531 C 548.136719 498.929688 546.136719 496.886719 543.625 496.886719 Z M 543.625 496.886719"/><g clip-path="url(#n)"><path fill="#FFF" d="M 612.917969 496.886719 C 610.40625 496.886719 608.40625 498.929688 608.40625 501.394531 C 608.40625 503.859375 610.453125 505.90625 612.917969 505.90625 C 615.378906 505.90625 617.425781 503.859375 617.425781 501.394531 C 617.425781 498.929688 615.425781 496.886719 612.917969 496.886719 Z M 612.917969 496.886719"/></g></svg>